<svg width="47" height="29" viewBox="0 0 47 29" fill="none" xmlns="http://www.w3.org/2000/svg">
<path d="M0.758454 0.450418C-0.510247 1.82484 -0.0873468 21.4897 1.28708 22.8641C2.76723 24.3443 20.1061 24.6615 20.1061 23.0756C20.1061 22.547 16.1943 22.0183 11.4367 21.8069L2.66151 21.4897L2.34433 11.6573L2.02716 1.93057H6.04471C16.9344 1.82484 32.476 1.82484 34.1676 1.82484C35.6477 1.93057 35.9649 2.98782 35.9649 8.27408C35.9649 11.9745 36.3878 14.6176 37.0222 14.6176C37.7622 14.6176 38.0794 11.9745 37.868 7.42828L37.5508 0.344692L19.4718 0.0275173C9.63936 -0.078207 1.18135 0.133244 0.758454 0.450418Z" fill="black"/>
<path d="M13.0227 7.95695C16.3002 8.1684 21.7979 8.1684 25.1811 7.95695C28.4586 7.7455 25.7097 7.63978 19.049 7.63978C12.3884 7.63978 9.6395 7.7455 13.0227 7.95695Z" fill="black"/>
<path d="M7.41943 12.5031C7.41943 13.1375 11.9656 13.5604 18.9435 13.5604C25.6042 13.5604 30.7847 13.1375 31.2076 12.5031C31.6305 11.8688 27.5072 11.4459 19.6835 11.4459C12.1771 11.4459 7.41943 11.8688 7.41943 12.5031Z" fill="black"/>
<path d="M24.2293 19.0581C23.8064 25.7187 23.9122 27.6218 24.5465 28.0447C25.0751 28.2561 25.3923 27.7275 25.3923 26.8817C25.3923 24.7672 28.4583 24.6615 29.1984 26.776C30.3614 29.6306 31.3129 28.4676 31.3129 24.3443C31.2072 19.3752 30.1499 17.7894 26.8725 17.7894C25.498 17.7894 24.3351 18.4237 24.2293 19.0581ZM29.6213 21.5955C29.6213 22.4413 28.6698 23.0756 27.5068 23.0756C25.498 23.0756 24.6522 21.0668 26.0267 19.5867C27.0839 18.6352 29.6213 20.0096 29.6213 21.5955Z" fill="black"/>
<path d="M34.59 18.5294C33.427 19.5867 33.7442 28.3619 34.9072 28.3619C35.5415 28.3619 35.9644 25.9302 35.9644 23.0756C35.9644 17.6836 35.8587 17.2607 34.59 18.5294Z" fill="black"/>
<path d="M39.3484 23.2871C39.6656 28.5733 39.7713 28.8905 42.6259 28.9962C46.2206 29.102 47.3835 26.9875 46.6435 22.0184C46.1148 18.7409 45.5862 18.318 42.5202 18.0008L39.0312 17.6836L39.3484 23.2871ZM45.269 21.1726C44.529 23.1814 41.2515 23.4985 41.2515 21.5955C41.2515 20.5382 42.203 19.9039 43.4717 19.9039C44.7404 19.9039 45.4805 20.4325 45.269 21.1726ZM45.4805 25.7188C45.4805 26.5646 44.529 27.3046 43.366 27.3046C42.203 27.3046 41.2515 26.5646 41.2515 25.7188C41.2515 24.873 42.203 24.1329 43.366 24.1329C44.529 24.1329 45.4805 24.873 45.4805 25.7188Z" fill="black"/>
</svg>
