<svg width="33" height="32" viewBox="0 0 33 32" fill="none" xmlns="http://www.w3.org/2000/svg">
<mask id="path-1-inside-1_140_353" fill="white">
<path fill-rule="evenodd" clip-rule="evenodd" d="M5.52222 11.4558C5.52222 5.97544 9.40373 1.39772 14.5694 0.329028L14.6126 0.363614C14.6126 0.363614 16.1241 0 16.9761 0C17.8281 0 19.1578 0.363614 19.1578 0.363614L19.1955 0.327985C21.7444 0.858157 24.0348 2.24744 25.6829 4.26423C27.3415 6.29397 28.2477 8.83457 28.2481 11.4558C28.2481 13.4557 28.9753 21.0007 31.0206 25.0913C31.5274 26.1072 32.1137 26.9117 32.7932 27.3639H19.9136C19.9764 27.1419 20 27 20 27H14C14 27 14.0236 27.1419 14.0864 27.3639H0.977051C1.65655 26.9117 2.24288 26.1072 2.74967 25.0913C4.79499 21.0007 5.52222 13.4557 5.52222 11.4558ZM14.113 27.4548H12.34C12.34 28.6603 12.8188 29.8164 13.6712 30.6687C14.5236 31.5211 15.6797 32 16.8851 32C18.0906 32 19.2467 31.5211 20.0991 30.6687C20.9515 29.8164 21.4303 28.6603 21.4303 27.4548H19.887C19.6333 28.2938 18.8854 30 17 30C15.1146 30 14.3667 28.2938 14.113 27.4548ZM16.8851 2.17913L15.0739 2.54502C13.0194 2.96363 11.1726 4.07925 9.84616 5.70306C8.5197 7.32686 7.79503 9.35911 7.79481 11.4558C7.79481 12.883 7.49028 16.4487 6.75169 19.9598C6.38808 21.7029 5.8972 23.5187 5.24497 25.0913H28.5253C27.8731 23.5187 27.3845 21.7052 27.0186 19.9598C26.28 16.4487 25.9755 12.883 25.9755 11.4558C25.9747 9.3595 25.2498 7.32779 23.9234 5.70445C22.597 4.08111 20.7505 2.96583 18.6964 2.54729L16.8851 2.17913Z"/>
</mask>
<path fill-rule="evenodd" clip-rule="evenodd" d="M5.52222 11.4558C5.52222 5.97544 9.40373 1.39772 14.5694 0.329028L14.6126 0.363614C14.6126 0.363614 16.1241 0 16.9761 0C17.8281 0 19.1578 0.363614 19.1578 0.363614L19.1955 0.327985C21.7444 0.858157 24.0348 2.24744 25.6829 4.26423C27.3415 6.29397 28.2477 8.83457 28.2481 11.4558C28.2481 13.4557 28.9753 21.0007 31.0206 25.0913C31.5274 26.1072 32.1137 26.9117 32.7932 27.3639H19.9136C19.9764 27.1419 20 27 20 27H14C14 27 14.0236 27.1419 14.0864 27.3639H0.977051C1.65655 26.9117 2.24288 26.1072 2.74967 25.0913C4.79499 21.0007 5.52222 13.4557 5.52222 11.4558ZM14.113 27.4548H12.34C12.34 28.6603 12.8188 29.8164 13.6712 30.6687C14.5236 31.5211 15.6797 32 16.8851 32C18.0906 32 19.2467 31.5211 20.0991 30.6687C20.9515 29.8164 21.4303 28.6603 21.4303 27.4548H19.887C19.6333 28.2938 18.8854 30 17 30C15.1146 30 14.3667 28.2938 14.113 27.4548ZM16.8851 2.17913L15.0739 2.54502C13.0194 2.96363 11.1726 4.07925 9.84616 5.70306C8.5197 7.32686 7.79503 9.35911 7.79481 11.4558C7.79481 12.883 7.49028 16.4487 6.75169 19.9598C6.38808 21.7029 5.8972 23.5187 5.24497 25.0913H28.5253C27.8731 23.5187 27.3845 21.7052 27.0186 19.9598C26.28 16.4487 25.9755 12.883 25.9755 11.4558C25.9747 9.3595 25.2498 7.32779 23.9234 5.70445C22.597 4.08111 20.7505 2.96583 18.6964 2.54729L16.8851 2.17913Z" fill="#48474A" fill-opacity="0.6"/>
<path d="M14.5694 0.329028L16.4435 -2.01357L15.3424 -2.89443L13.9616 -2.60876L14.5694 0.329028ZM14.6126 0.363614L12.7385 2.70622L13.8858 3.62405L15.3143 3.2804L14.6126 0.363614ZM19.1578 0.363614L18.3665 3.25737L19.9938 3.70238L21.2194 2.543L19.1578 0.363614ZM19.1955 0.327985L19.8064 -2.60916L18.2722 -2.92825L17.1338 -1.85141L19.1955 0.327985ZM25.6829 4.26423L23.3598 6.16255L23.3598 6.16255L25.6829 4.26423ZM28.2481 11.4558H31.2481V11.4554L28.2481 11.4558ZM31.0206 25.0913L33.7051 23.7521L33.7039 23.7497L31.0206 25.0913ZM32.7932 27.3639V30.3639H42.7154L34.4554 24.8665L32.7932 27.3639ZM19.9136 27.3639L17.0266 26.5484L15.9489 30.3639H19.9136V27.3639ZM20 27L22.9592 27.4932L23.5414 24H20V27ZM14 27V24H10.4586L11.0408 27.4932L14 27ZM14.0864 27.3639V30.3639H18.0511L16.9734 26.5484L14.0864 27.3639ZM0.977051 27.3639L-0.68512 24.8665L-8.9451 30.3639H0.977051V27.3639ZM2.74967 25.0913L0.0663847 23.7497L0.0651866 23.7521L2.74967 25.0913ZM12.34 27.4548V24.4548H9.33998V27.4548H12.34ZM14.113 27.4548L16.9845 26.5862L16.3397 24.4548H14.113V27.4548ZM13.6712 30.6687L11.5499 32.7901H11.5499L13.6712 30.6687ZM21.4303 27.4548H24.4303V24.4548H21.4303V27.4548ZM19.887 27.4548V24.4548H17.6603L17.0156 26.5862L19.887 27.4548ZM15.0739 2.54502L14.4799 -0.395584L14.4749 -0.394581L15.0739 2.54502ZM16.8851 2.17913L17.4827 -0.760749L16.887 -0.881837L16.2911 -0.761467L16.8851 2.17913ZM9.84616 5.70306L7.52281 3.80515V3.80515L9.84616 5.70306ZM7.79481 11.4558L4.79481 11.4555V11.4558H7.79481ZM6.75169 19.9598L3.81594 19.3423L3.81491 19.3472L6.75169 19.9598ZM5.24497 25.0913L2.47384 23.942L0.752966 28.0913H5.24497V25.0913ZM28.5253 25.0913V28.0913H33.0173L31.2965 23.942L28.5253 25.0913ZM27.0186 19.9598L29.9548 19.3443L29.9544 19.3423L27.0186 19.9598ZM25.9755 11.4558H28.9755V11.4548L25.9755 11.4558ZM23.9234 5.70445L26.2465 3.80625V3.80625L23.9234 5.70445ZM18.6964 2.54729L19.2954 -0.392309L19.294 -0.39259L18.6964 2.54729ZM13.9616 -2.60876C7.43002 -1.25748 2.52222 4.52529 2.52222 11.4558H8.52222C8.52222 7.42559 11.3774 4.05293 15.1772 3.26682L13.9616 -2.60876ZM16.4867 -1.97899L16.4435 -2.01357L12.6953 2.67163L12.7385 2.70622L16.4867 -1.97899ZM16.9761 -3C16.2458 -3 15.414 -2.85914 14.9215 -2.76672C14.6417 -2.71421 14.3949 -2.66215 14.2178 -2.62319C14.1286 -2.60359 14.0557 -2.58698 14.0033 -2.57487C13.9771 -2.56881 13.9559 -2.56385 13.9404 -2.56018C13.9326 -2.55834 13.9262 -2.55682 13.9213 -2.55565C13.9188 -2.55506 13.9167 -2.55456 13.915 -2.55415C13.9141 -2.55394 13.9134 -2.55375 13.9127 -2.55359C13.9124 -2.55351 13.912 -2.55343 13.9117 -2.55336C13.9116 -2.55333 13.9114 -2.55328 13.9113 -2.55326C13.9111 -2.55322 13.9109 -2.55317 14.6126 0.363614C15.3143 3.2804 15.3141 3.28044 15.314 3.28048C15.3139 3.2805 15.3137 3.28054 15.3136 3.28056C15.3134 3.28061 15.3133 3.28065 15.3131 3.28069C15.3128 3.28076 15.3126 3.28081 15.3125 3.28085C15.3122 3.28091 15.3123 3.28089 15.3127 3.28079C15.3135 3.28059 15.3157 3.28006 15.3192 3.27924C15.3262 3.27758 15.3384 3.27473 15.3552 3.27085C15.3888 3.26308 15.4406 3.25128 15.5064 3.23679C15.6393 3.20757 15.8236 3.16873 16.0282 3.13033C16.2354 3.09145 16.4461 3.0563 16.6352 3.03165C16.7287 3.01945 16.8079 3.01103 16.8719 3.00585C16.9034 3.0033 16.9283 3.00178 16.9471 3.00091C16.9563 3.00049 16.9634 3.00025 16.9685 3.00013C16.971 3.00007 16.9729 3.00003 16.9742 3.00002C16.9755 3 16.9761 3 16.9761 3V-3ZM19.1578 0.363614C19.9491 -2.53014 19.9489 -2.5302 19.9486 -2.53027C19.9486 -2.53029 19.9483 -2.53036 19.9481 -2.53041C19.9478 -2.5305 19.9474 -2.5306 19.947 -2.53071C19.9462 -2.53092 19.9454 -2.53116 19.9444 -2.53142C19.9425 -2.53194 19.9403 -2.53254 19.9377 -2.53323C19.9326 -2.53462 19.9262 -2.53635 19.9186 -2.5384C19.9032 -2.5425 19.8829 -2.5479 19.858 -2.55442C19.8082 -2.56743 19.7397 -2.58501 19.6563 -2.60562C19.4907 -2.64654 19.2598 -2.70098 18.9949 -2.75585C18.5247 -2.85322 17.7269 -3 16.9761 -3V3C16.9761 3 16.9766 3 16.9777 3.00001C16.9787 3.00003 16.9803 3.00005 16.9823 3.0001C16.9864 3.00021 16.9923 3.0004 16.9999 3.00076C17.0153 3.00149 17.0361 3.00279 17.0624 3.00501C17.116 3.00953 17.1827 3.01699 17.2621 3.02807C17.4231 3.05052 17.6017 3.08294 17.778 3.11947C17.952 3.15549 18.1068 3.19196 18.2171 3.21922C18.2717 3.2327 18.3138 3.24353 18.34 3.2504C18.3531 3.25383 18.3622 3.25623 18.3668 3.25746C18.369 3.25807 18.3702 3.25838 18.3702 3.25837C18.3702 3.25837 18.3698 3.25829 18.3692 3.25812C18.3689 3.25804 18.3685 3.25793 18.3681 3.25781C18.3679 3.25774 18.3676 3.25768 18.3673 3.2576C18.3672 3.25757 18.367 3.25751 18.3669 3.25749C18.3667 3.25743 18.3665 3.25737 19.1578 0.363614ZM17.1338 -1.85141L17.0962 -1.81578L21.2194 2.543L21.2571 2.50738L17.1338 -1.85141ZM28.0059 2.36592C25.9228 -0.183142 23.0281 -1.93906 19.8064 -2.60916L18.5846 3.26513C20.4608 3.65538 22.1467 4.67801 23.3598 6.16255L28.0059 2.36592ZM31.2481 11.4554C31.2477 8.14242 30.1023 4.93132 28.0059 2.36591L23.3598 6.16255C24.5808 7.65662 25.2478 9.52673 25.2481 11.4562L31.2481 11.4554ZM33.7039 23.7497C32.8901 22.1222 32.2535 19.58 31.8272 17.0005C31.4073 14.4591 31.2481 12.244 31.2481 11.4558H25.2481C25.2481 12.6676 25.4525 15.2249 25.9075 17.9786C26.3562 20.6942 27.1058 23.9699 28.3373 26.433L33.7039 23.7497ZM34.4554 24.8665C34.4602 24.8697 34.3751 24.8121 34.223 24.6138C34.0735 24.4187 33.8972 24.1371 33.7051 23.7521L28.3361 26.4306C28.9326 27.6261 29.8084 28.9811 31.1311 29.8614L34.4554 24.8665ZM19.9136 30.3639H32.7932V24.3639H19.9136V30.3639ZM20 27C17.0408 26.5068 17.0409 26.5066 17.0409 26.5063C17.0409 26.5062 17.041 26.506 17.041 26.5058C17.041 26.5055 17.0411 26.5051 17.0412 26.5048C17.0413 26.5041 17.0414 26.5035 17.0415 26.5028C17.0417 26.5015 17.0419 26.5003 17.0421 26.499C17.0425 26.4966 17.0429 26.4942 17.0433 26.492C17.0441 26.4875 17.0448 26.4835 17.0454 26.4799C17.0467 26.4728 17.0477 26.4675 17.0484 26.4639C17.0498 26.4567 17.05 26.4561 17.0489 26.4611C17.0466 26.4717 17.0395 26.5028 17.0266 26.5484L22.8007 28.1794C22.8505 28.003 22.8866 27.8522 22.9118 27.7363C22.9245 27.6781 22.9345 27.6281 22.9423 27.5874C22.9462 27.567 22.9495 27.5489 22.9523 27.5331C22.9537 27.5253 22.955 27.518 22.9561 27.5113C22.9567 27.508 22.9572 27.5048 22.9577 27.5018C22.958 27.5003 22.9582 27.4988 22.9585 27.4974C22.9586 27.4967 22.9587 27.4959 22.9588 27.4952C22.9589 27.4949 22.959 27.4945 22.959 27.4942C22.959 27.494 22.9591 27.4938 22.9591 27.4937C22.9591 27.4934 22.9592 27.4932 20 27ZM14 30H20V24H14V30ZM16.9734 26.5484C16.9605 26.5028 16.9534 26.4716 16.9511 26.4611C16.95 26.456 16.9502 26.4567 16.9516 26.4639C16.9523 26.4675 16.9533 26.4728 16.9546 26.4799C16.9552 26.4835 16.9559 26.4875 16.9567 26.4919C16.9571 26.4942 16.9575 26.4965 16.9579 26.499C16.9581 26.5003 16.9583 26.5015 16.9585 26.5028C16.9586 26.5035 16.9587 26.5041 16.9588 26.5048C16.9589 26.5051 16.959 26.5055 16.959 26.5058C16.959 26.506 16.9591 26.5062 16.9591 26.5063C16.9591 26.5065 16.9592 26.5068 14 27C11.0408 27.4932 11.0409 27.4935 11.0409 27.4937C11.0409 27.4938 11.041 27.4941 11.041 27.4942C11.041 27.4946 11.0411 27.4949 11.0412 27.4953C11.0413 27.496 11.0414 27.4967 11.0415 27.4974C11.0418 27.4988 11.042 27.5003 11.0423 27.5018C11.0428 27.5048 11.0433 27.508 11.0439 27.5114C11.045 27.518 11.0463 27.5253 11.0477 27.5332C11.0505 27.5489 11.0539 27.567 11.0577 27.5874C11.0655 27.6281 11.0755 27.6781 11.0882 27.7363C11.1134 27.8522 11.1495 28.003 11.1993 28.1794L16.9734 26.5484ZM0.977051 30.3639H14.0864V24.3639H0.977051V30.3639ZM0.0651866 23.7521C-0.126878 24.1371 -0.303188 24.4187 -0.452748 24.6138C-0.604763 24.8121 -0.68988 24.8697 -0.68512 24.8665L2.63922 29.8614C3.96185 28.9811 4.8377 27.6261 5.43415 26.4306L0.0651866 23.7521ZM2.52222 11.4558C2.52222 12.244 2.363 14.4591 1.94308 17.0005C1.51684 19.58 0.880156 22.1222 0.0663857 23.7497L5.43295 26.433C6.66451 23.9699 7.4141 20.6942 7.86281 17.9786C8.31783 15.2249 8.52222 12.6676 8.52222 11.4558H2.52222ZM12.34 30.4548H14.113V24.4548H12.34V30.4548ZM15.7925 28.5474C15.5028 28.2577 15.34 27.8646 15.34 27.4548H9.33998C9.33998 29.4559 10.1349 31.3751 11.5499 32.7901L15.7925 28.5474ZM16.8851 29C16.4753 29 16.0823 28.8372 15.7925 28.5474L11.5499 32.7901C12.9649 34.2051 14.884 35 16.8851 35V29ZM17.9777 28.5474C17.688 28.8372 17.295 29 16.8851 29V35C18.8863 35 20.8054 34.2051 22.2204 32.7901L17.9777 28.5474ZM18.4303 27.4548C18.4303 27.8646 18.2675 28.2577 17.9777 28.5474L22.2204 32.7901C23.6354 31.3751 24.4303 29.4559 24.4303 27.4548H18.4303ZM19.887 30.4548H21.4303V24.4548H19.887V30.4548ZM17.0156 26.5862C16.9872 26.6798 16.9472 26.7894 16.8965 26.8937C16.8445 27.0005 16.7995 27.064 16.7752 27.0925C16.7543 27.1168 16.7752 27.0848 16.8474 27.048C16.8831 27.0298 16.9206 27.0161 16.9554 27.0078C16.9901 26.9994 17.0073 27 17 27V33C18.9885 33 20.4309 32.0497 21.3356 30.9916C22.1718 30.0135 22.5742 28.9328 22.7585 28.3235L17.0156 26.5862ZM17 27C16.9927 27 17.0099 26.9994 17.0446 27.0078C17.0794 27.0161 17.1169 27.0298 17.1526 27.048C17.2248 27.0848 17.2457 27.1168 17.2248 27.0925C17.2005 27.064 17.1555 27.0005 17.1035 26.8937C17.0528 26.7894 17.0128 26.6798 16.9845 26.5862L11.2415 28.3235C11.4258 28.9328 11.8282 30.0135 12.6644 30.9916C13.5691 32.0497 15.0115 33 17 33V27ZM15.6679 5.48562L17.4792 5.11974L16.2911 -0.761467L14.4799 -0.39558L15.6679 5.48562ZM12.1695 7.60096C13.0584 6.51278 14.296 5.76515 15.6728 5.48462L14.4749 -0.394581C11.7427 0.162111 9.28681 1.64572 7.52281 3.80515L12.1695 7.60096ZM10.7948 11.4562C10.795 10.051 11.2806 8.68915 12.1695 7.60096L7.52281 3.80515C5.75881 5.96458 4.79511 8.66717 4.79481 11.4555L10.7948 11.4562ZM9.68744 20.5774C10.4623 16.8939 10.7948 13.1197 10.7948 11.4558H4.79481C4.79481 12.6463 4.51827 16.0035 3.81594 19.3423L9.68744 20.5774ZM8.01609 26.2406C8.767 24.4301 9.30412 22.415 9.68847 20.5725L3.81491 19.3472C3.47203 20.9909 3.0274 22.6073 2.47384 23.942L8.01609 26.2406ZM28.5253 22.0913H5.24497V28.0913H28.5253V22.0913ZM24.0824 20.5754C24.4682 22.4157 25.0028 24.429 25.7542 26.2406L31.2965 23.942C30.7434 22.6085 30.3007 20.9946 29.9548 19.3443L24.0824 20.5754ZM22.9755 11.4558C22.9755 13.1197 23.308 16.8939 24.0829 20.5774L29.9544 19.3423C29.252 16.0035 28.9755 12.6463 28.9755 11.4558H22.9755ZM21.6003 7.60264C22.4892 8.69051 22.975 10.0521 22.9755 11.4569L28.9755 11.4548C28.9745 8.66694 28.0105 5.96506 26.2465 3.80625L21.6003 7.60264ZM18.0974 5.4869C19.474 5.76737 20.7114 6.51477 21.6003 7.60265L26.2465 3.80625C24.4826 1.64745 22.027 0.16428 19.2954 -0.392308L18.0974 5.4869ZM16.2876 5.11902L18.0988 5.48718L19.294 -0.39259L17.4827 -0.760749L16.2876 5.11902Z" fill="#48474A" fill-opacity="0.6" mask="url(#path-1-inside-1_140_353)"/>
</svg>
