<svg width="31" height="29" viewBox="0 0 31 29" fill="none" xmlns="http://www.w3.org/2000/svg">
<path d="M16.7372 0.278829C15.7832 0.914843 15.3856 10.7731 16.2602 12.1246C16.9757 13.2376 28.5829 13.9531 29.537 12.9196C30.4115 12.1246 28.3444 6.55946 26.4364 4.49242C23.8128 1.55086 18.2477 -0.834195 16.7372 0.278829ZM25.0054 4.96943C27.3109 7.43398 28.6624 10.6936 27.7084 11.6476C27.3109 12.0451 24.8464 12.2836 22.3023 12.1246L17.6117 11.8861L17.3732 7.59299C17.0552 1.55086 17.3732 0.994345 20.5533 2.10737C21.9843 2.58438 23.9718 3.85641 25.0054 4.96943Z" fill="black"/>
<path d="M8.15098 4.73091C2.34736 6.79795 -1.30972 13.7146 0.439317 19.5182C2.74487 27.3094 10.7745 31.046 18.3272 27.8659C22.6203 26.0374 22.5408 25.2424 17.6912 20.3132L13.2391 15.7816V9.66002C13.2391 2.90237 13.2391 2.90237 8.15098 4.73091ZM12.4441 10.932V16.7357L16.4192 20.6313C18.6452 22.7778 20.3942 24.8448 20.3942 25.1628C20.3942 26.1964 15.7831 28.1839 13.2391 28.1839C6.56095 28.1839 1.31384 23.0958 1.31384 16.5767C1.31384 10.773 5.92493 5.12842 10.695 5.12842C12.3646 5.12842 12.4441 5.44643 12.4441 10.932Z" fill="black"/>
<path d="M16.4189 15.3047C16.4189 15.6227 18.4065 17.8488 20.712 20.1543C24.6076 23.9704 25.2436 24.3679 26.4362 23.4139C27.7082 22.3009 28.7417 20.1543 29.6162 16.6562L30.0932 14.6687H23.2561C19.5195 14.6687 16.4189 14.9867 16.4189 15.3047ZM28.3442 16.6562C28.3442 17.3717 26.0387 22.6189 25.7206 22.6189C25.2436 22.6189 19.599 17.2127 19.599 16.7357C19.599 16.4972 21.5866 16.2587 23.9716 16.2587C26.3567 16.2587 28.3442 16.4177 28.3442 16.6562Z" fill="black"/>
</svg>
