<svg width="36" height="30" viewBox="0 0 36 30" fill="none" xmlns="http://www.w3.org/2000/svg">
<path d="M1.71667 1.71667C1.71667 2.66084 1.37333 3.43334 0.858333 3.43334C0.343333 3.43334 0 7.89667 0 15.0208V26.6083H3.8625C6.52333 26.6083 7.89667 27.0375 8.24 27.8958C9.0125 29.87 33.9042 29.7842 34.6767 27.81C36.05 24.2908 34.6767 6.00834 33.0458 6.00834C32.445 6.00834 31.7583 5.23584 31.5008 4.29167C31.0717 2.74667 30.2992 2.575 21.5442 2.575C13.6475 2.575 12.0167 2.3175 12.0167 1.2875C12.0167 0.257504 10.9008 1.90735e-06 6.86667 1.90735e-06C2.3175 1.90735e-06 1.71667 0.171669 1.71667 1.71667ZM11.1583 3.00417C11.1583 4.03417 12.7892 4.29167 20.6 4.29167C35.535 4.29167 32.1017 5.9225 16.5658 6.18L3.00417 6.4375L2.575 12.875L2.23167 19.3125L1.71667 12.875C1.11583 3.8625 2.14583 1.71667 7.29583 1.71667C10.1283 1.71667 11.1583 2.06 11.1583 3.00417ZM33.3033 9.18417C33.5608 11.1583 33.5608 11.1583 21.5442 11.1583C7.4675 11.1583 7.725 10.9867 7.725 20.1708C7.725 25.5783 7.63917 25.8358 5.83667 25.5783C3.94833 25.3208 3.8625 24.8917 3.605 17.2525C3.51917 12.7892 3.605 8.58334 3.77667 7.9825C4.20583 7.03834 7.21 6.86667 18.6258 7.03834C32.8742 7.29584 33.0458 7.29584 33.3033 9.18417ZM33.3033 20.3425L33.0458 27.8958H21.4583H9.87083L9.61333 20.3425L9.35583 12.875H21.4583H33.5608L33.3033 20.3425Z" fill="black"/>
</svg>
