<svg width="26" height="22" viewBox="0 0 26 22" fill="none" xmlns="http://www.w3.org/2000/svg">
<path d="M11.778 6.28572C12.8453 6.28572 13.8522 6.76737 14.6135 7.64187L15.7144 6.57958C14.6665 5.37665 13.2685 4.71429 11.778 4.71429C10.2868 4.71429 8.88955 5.37665 7.84314 6.58037C7.32187 7.18034 6.91562 7.88067 6.64671 8.64287H4.71436V10.2143H6.29218C6.26382 10.4736 6.24441 10.7352 6.24441 11C6.24441 11.2648 6.26382 11.5264 6.29218 11.7857H4.71436V13.3572H6.64671C6.91689 14.1193 7.31919 14.8194 7.84314 15.4204C8.88955 16.6234 10.2868 17.2857 11.778 17.2857C13.2685 17.2857 14.6665 16.6234 15.7136 15.4204L14.6127 14.3582C13.8522 15.2327 12.8453 15.7143 11.778 15.7143C10.7107 15.7143 9.70459 15.2334 8.94329 14.3582C8.68772 14.0554 8.47069 13.7189 8.29768 13.3572H11.4317V11.7857H7.80358C7.76626 11.528 7.73715 11.2672 7.73715 11C7.73715 10.7329 7.76626 10.472 7.80358 10.2143H11.4317V8.64287H8.29768C8.47681 8.28379 8.6828 7.94122 8.94329 7.64187C9.70459 6.76737 10.7107 6.28572 11.778 6.28572Z" fill="white"/>
<path d="M19.1949 13.3146L16.5242 10.8H25.1428V9.62853H16.5242L19.1949 7.11394L18.3152 6.28571L14.1428 10.2143L18.3152 14.1428L19.1949 13.3146Z" fill="white"/>
<path fill-rule="evenodd" clip-rule="evenodd" d="M19.1733 16.7631C17.3627 19.3263 14.3768 21 11 21C5.47715 21 1 16.5228 1 11C1 5.47715 5.47715 1 11 1C14.3768 1 17.3627 2.67374 19.1733 5.23687C19.516 5.15135 19.8678 5.07552 20.2276 5.00999C18.2659 1.99419 14.8658 0 11 0C4.92487 0 0 4.92487 0 11C0 17.0751 4.92487 22 11 22C14.8658 22 18.2659 20.0058 20.2276 16.99C19.8678 16.9245 19.516 16.8487 19.1733 16.7631Z" fill="white"/>
</svg>
