<svg width="42" height="43" viewBox="0 0 42 43" fill="none" xmlns="http://www.w3.org/2000/svg">
<path d="M10.4884 10.9004C10.4222 10.1724 10.6075 7.97882 11.8781 5.02811C13.1488 2.0774 16.1135 1.11324 17.4371 1H23.3435C24.1707 1.03235 26.123 1.36884 27.3142 2.45594C28.0793 3.15423 28.8855 4.25033 29.4957 5.18087C30.0087 5.96304 29.955 6.97142 29.4228 7.74065V7.74065C29.2431 8.00052 29.0148 8.2232 28.7505 8.39647L25.4138 10.5843C25.095 10.7934 24.7416 10.9444 24.3701 11.0302L20.9413 11.8225C20.1887 11.9964 19.5151 11.3198 19.6924 10.568V10.568C19.9049 9.66646 18.9237 8.95639 18.1338 9.44017L15.7496 10.9004C14.9223 11.5799 12.9899 12.7349 11.8781 11.9196" stroke="black" stroke-width="1.5"/>
<path d="M13.2769 24.4769L13.8784 25.4996C14.8913 27.2216 16.3835 28.6115 18.1729 29.5V29.5" stroke="black"/>
<path d="M26.8461 25.5539L26.0188 26.8981C25.4227 27.8668 24.745 28.783 23.9931 29.6365L23.6729 30" stroke="black"/>
<path d="M11.858 12.1046L10.713 11.2458C10.5638 11.134 10.4761 10.9584 10.4761 10.772V10.772M30.3163 7.46533V11.613C30.3163 12.2859 30.5257 12.9422 30.9154 13.4907V13.4907C31.387 14.1544 31.5916 14.9713 31.4885 15.7789L31.2692 17.4968C31.1291 18.5941 30.7535 19.6481 30.1682 20.5867L26.5043 26.4615C25.7326 27.6988 25.2621 29.1212 26.0225 30.3654V30.3654C26.6542 31.3992 28.0726 32.4086 29.2106 33.0784C29.9293 33.5015 30.7301 33.754 31.5483 33.9157L32.8717 34.1773C33.9895 34.3982 35.0613 34.8086 36.0408 35.3906L37.0449 35.9873C37.6557 36.3502 38.2097 36.8012 38.689 37.3257V37.3257C39.9066 38.6583 40.5818 40.3981 40.5818 42.2032V43" stroke="black" stroke-width="1.5"/>
<path d="M10.624 11.5617V12.7463C10.624 13.1744 10.3978 13.5708 10.0292 13.7886V13.7886C9.71825 13.9723 9.50557 14.2853 9.44924 14.6421L9.20626 16.181C9.13189 16.6519 9.13255 17.1317 9.20821 17.6025L9.25097 17.8685C9.43855 19.0357 9.95539 20.125 10.7407 21.0086L11.3122 21.6514C11.7079 22.0966 12.0592 22.5793 12.3612 23.0927L13.6584 25.2979C13.8068 25.5501 13.975 25.7902 14.1614 26.0158L14.515 26.444C15.3042 27.3993 15.6433 28.6485 15.4454 29.8718V29.8718C15.2952 30.8004 14.8448 31.6542 14.1633 32.3025L13.9676 32.4886C13.455 32.9762 12.8467 33.3519 12.1813 33.5919L10.1798 34.3137L6.96054 35.025C6.27969 35.1754 5.61997 35.4092 4.99632 35.721L4.51374 35.9623C3.5681 36.4351 2.75533 37.1363 2.14904 38.0025V38.0025C1.40115 39.0709 1 40.3435 1 41.6476V42.7039" stroke="black" stroke-width="1.5"/>
</svg>
