<svg width="30" height="25" viewBox="0 0 30 25" fill="none" xmlns="http://www.w3.org/2000/svg">
<path d="M7.78133 0.278267C7.78133 1.62026 9.51831 2.67973 11.7619 2.75036C13.5713 2.75036 13.716 2.89163 12.4857 3.38605C10.4592 4.23362 5.82722 9.10718 5.46535 10.8023C5.24823 12.0737 5.0311 12.0031 2.7875 9.88412C-0.83122 6.49382 -0.975969 7.83582 2.64275 11.438C4.30736 13.1332 5.6101 14.9696 5.53772 15.464C5.10348 18.0067 9.15644 23.7985 11.4724 23.8691C12.0514 23.8691 12.9199 24.2223 13.3542 24.6461C14.0055 25.2818 14.874 25.0699 16.7557 23.9398C18.2032 23.0215 19.5783 22.5271 19.8678 22.6684C20.2297 22.8803 21.6048 22.4565 22.9799 21.7502C24.3551 20.9732 26.2368 20.055 27.1777 19.7019C28.987 18.8543 29.2765 16.6647 27.6843 15.3934C26.671 14.5458 26.7434 14.2633 28.4804 12.4975C31.0859 9.88412 30.0726 8.89529 27.4672 11.3674L25.3683 13.2744L23.9932 11.7912C21.9667 9.6016 20.085 8.75402 19.1441 9.67223C17.9861 10.8023 15.5978 10.6611 13.716 9.31907C12.1238 8.25961 11.9067 8.25961 10.3868 9.67223C8.57745 11.3674 7.05759 11.5793 7.05759 10.2373C7.05759 9.10718 10.3144 6.07004 12.7028 4.79867C13.6437 4.37488 15.2359 4.16299 16.2491 4.44551C18.2032 4.8693 21.5325 3.24478 21.5325 1.90279C21.5325 1.33774 21.1706 1.40837 20.4468 1.97342C19.5783 2.67973 18.927 2.67973 17.4795 2.04405C16.4663 1.62026 14.295 1.26711 12.6304 1.26711C10.8934 1.26711 9.15644 0.91395 8.64982 0.419531C8.1432 -0.0748882 7.78133 -0.145521 7.78133 0.278267ZM14.2226 10.873C16.1768 11.7912 16.9729 11.8618 18.4927 11.2261C20.1573 10.4492 20.5916 10.6611 23.8484 13.7688C27.1777 16.9473 27.9738 18.2186 26.8158 18.2186C26.4539 18.2186 25.0064 17.0885 23.4866 15.7465C19.7955 12.4269 18.348 12.5681 21.7496 15.9584C24.2827 18.5011 25.1512 20.3376 23.8484 20.3376C23.5589 20.3376 22.0391 19.0662 20.4468 17.5123C18.927 16.029 17.4071 14.8989 16.9729 15.1815C16.611 15.3934 17.5519 16.7354 18.9994 18.2186C20.5916 19.7725 21.3877 21.0439 20.8811 21.3264C20.5192 21.6089 19.0717 20.6907 17.8414 19.2781C16.1768 17.5123 15.0911 16.8766 14.1503 17.2298C13.2094 17.5123 12.1962 17.0179 11.0382 15.8172C10.0249 14.7577 8.50507 13.6276 7.63658 13.2744C6.04434 12.7094 6.04434 12.6387 7.49183 12.6387C8.28795 12.5681 9.59069 11.9324 10.3144 11.1555C11.9067 9.46034 11.4 9.53097 14.2226 10.873ZM8.7222 15.7465C8.7222 16.1703 8.21558 16.5235 7.56421 16.6647C6.69571 16.8766 6.47859 16.5941 6.76809 15.7465C7.27471 14.5458 8.57745 14.5458 8.7222 15.7465ZM10.5316 19.3487C8.79457 21.0439 7.34708 19.8431 8.93932 18.148C9.80781 17.2298 10.4592 17.0179 10.9658 17.5123C11.4724 18.0067 11.3277 18.5718 10.5316 19.3487ZM13.5713 20.2669C13.5713 21.1145 11.4724 22.739 10.9658 22.2446C10.1697 21.5383 11.3277 19.6312 12.4857 19.6312C13.0647 19.6312 13.5713 19.9138 13.5713 20.2669ZM15.7425 22.3859C15.7425 23.2334 14.295 24.1516 13.7884 23.6572C13.2818 23.1628 14.2226 21.7502 15.0911 21.7502C15.453 21.7502 15.7425 22.0327 15.7425 22.3859Z" fill="#272727"/>
</svg>
