<svg width="27" height="24" viewBox="0 0 27 24" fill="none" xmlns="http://www.w3.org/2000/svg">
<path d="M1 11.5252L5.30701 11.5349L5.29897 12.6766L5.30448 21.2627L1.00423 21.2587" stroke="white" stroke-width="1.8" stroke-miterlimit="22.9256"/>
<path d="M5.29907 20.177C15.0792 24.7632 12.9791 23.8742 25.5958 16.6812C25.9821 15.4855 25.7234 14.7632 24.5947 14.6789C13.0115 19.883 14.7294 19.3218 9.82666 16.0404" stroke="white" stroke-width="1.8" stroke-miterlimit="22.9256"/>
<path d="M18.512 17.2043C12.7281 13.6183 11.8441 11.342 5.29907 12.1759" stroke="white" stroke-width="1.8" stroke-miterlimit="22.9256"/>
<path d="M19.0387 10.8154C20.3262 10.8154 21.3698 9.77171 21.3698 8.48424C21.3698 7.19678 20.3262 6.15308 19.0387 6.15308C17.7512 6.15308 16.7075 7.19678 16.7075 8.48424C16.7075 9.77171 17.7512 10.8154 19.0387 10.8154Z" stroke="white" stroke-width="1.8" stroke-miterlimit="22.9256"/>
<path d="M10.5729 5.66233C11.8603 5.66233 12.904 4.61863 12.904 3.33117C12.904 2.0437 11.8603 1 10.5729 1C9.2854 1 8.2417 2.0437 8.2417 3.33117C8.2417 4.61863 9.2854 5.66233 10.5729 5.66233Z" stroke="white" stroke-width="1.8" stroke-miterlimit="22.9256"/>
</svg>
