<svg width="20" height="25" viewBox="0 0 20 25" fill="none" xmlns="http://www.w3.org/2000/svg">
<path d="M6.00334 1.15584C-1.50744 4.54305 -2.02289 12.4957 4.75155 20.8164C8.87512 25.8973 9.83237 26.1182 13.2932 22.7309C17.4904 18.6074 20.0677 13.0111 19.5522 8.81389C19.184 4.98487 16.4595 1.59765 13.2196 0.787663C12.1887 0.566757 10.7896 0.19858 10.2005 0.0513077C9.61147 -0.169598 7.69695 0.345848 6.00334 1.15584ZM15.2814 3.95397C17.6377 5.72122 18.595 9.2557 17.5641 12.8638C16.8277 15.7356 11.3787 23.2464 10.1269 23.2464C8.2124 23.2464 2.61613 15.4411 1.80614 11.6857C0.186167 4.39578 9.09602 -0.685041 15.2814 3.95397Z" fill="black"/>
<path d="M8.06443 8.74022C6.22356 11.0229 9.02856 13.92 11.4585 12.1528C12.4894 11.3428 12.8155 10.0587 12.1528 9.02778C11.1219 7.33417 9.16896 7.41479 8.06443 8.74022Z" fill="black"/>
</svg>
