<svg width="44" height="29" viewBox="0 0 44 29" fill="none" xmlns="http://www.w3.org/2000/svg">
<path d="M1.4008 0.660669C0.323262 0.983931 0 4.97083 0 15.0997V29H14.4391H28.7703L31.6797 24.6898C34.5891 20.3797 39.1147 18.7634 40.1923 21.6727C40.5155 22.7503 40.9466 22.7503 42.3474 21.565C43.7482 20.4874 43.8559 19.6254 42.9939 18.1168C42.4551 17.0393 41.4853 16.0695 40.8388 16.0695C40.1923 16.0695 40.0845 16.5005 40.4078 17.147C40.8388 17.7936 39.7613 18.2246 37.8217 18.2246C35.3433 18.2246 33.727 19.3021 30.6022 23.0735L26.6153 28.0302L14.1158 27.707L1.61631 27.3837V14.992V2.60024L20.7965 2.27698L39.869 2.06147V6.80265C39.869 9.49651 40.4078 11.9748 40.9466 12.2981C41.5931 12.7291 42.0241 10.6818 42.0241 7.12592C42.0241 2.708 41.5931 1.09168 40.3 0.552914C38.2527 -0.201365 3.34038 -0.201365 1.4008 0.660669Z" fill="black"/>
<path d="M6.46533 13.5911C6.46533 14.6686 26.7231 14.4531 27.6929 13.4833C28.0162 13.1601 23.4905 12.8368 17.4563 12.8368C11.422 12.8368 6.46533 13.1601 6.46533 13.5911Z" fill="black"/>
<path d="M6.46533 19.3021C6.46533 19.9487 9.26694 20.3797 12.8228 20.3797C16.3787 20.3797 19.6113 19.8409 19.9346 19.3021C20.3656 18.6556 17.995 18.2246 13.5771 18.2246C9.5902 18.2246 6.46533 18.6556 6.46533 19.3021Z" fill="black"/>
<path d="M36.9602 26.6294C31.5725 27.0604 30.7105 29 35.8827 29C39.0075 29 43.2099 27.3837 42.0247 26.6294C41.7014 26.4139 39.4386 26.4139 36.9602 26.6294Z" fill="black"/>
</svg>
