<svg width="41" height="26" viewBox="0 0 41 26" fill="none" xmlns="http://www.w3.org/2000/svg">
<path d="M0 3.65625C0.0678084 5.78079 0 12.7561 0 12.7561V22.75V26H20.4747H40.9493L40.887 13.5778C41.0975 4.62222 40.9493 0.8125 40.9493 0C40.0591 0 29.8323 0 19.3041 0H0.0374737L0 3.65625ZM35.6081 1.625C35.3976 2.01019 24.2324 9.57828 20.0411 12.7561L19.9358 12.8074C15.1335 9.75 4.66158 2.01019 4.45101 1.625C3.87627 1.625 11.2911 1.625 20.0296 1.625C28.768 1.625 35.163 1.625 35.6081 1.625ZM12.9079 10.5625C16.2344 12.7561 19.5845 14.625 20.0296 15.0312C20.4747 14.625 24.3577 12.037 28.7795 9.14815C33.0961 6.25926 38.0921 2.03125 38.7238 2.03125C38.7238 2.84375 38.2787 17.7306 38.2787 24.375L20.0411 24.0741L1.72199 24.375V13.8125C1.72199 8.22731 1.3353 2.04696 1.3353 1.625C1.78041 2.03125 11.7498 9.98472 12.9079 10.5625Z" fill="black"/>
</svg>
