<svg width="38" height="27" viewBox="0 0 38 27" fill="none" xmlns="http://www.w3.org/2000/svg">
<path fill-rule="evenodd" clip-rule="evenodd" d="M25.0242 0V7.4925C25.0242 12.2946 25.0628 15.1875 25.1208 15.525C25.1787 15.8143 25.3237 16.2675 25.4493 16.5375C25.5652 16.7979 25.8164 17.1643 26 17.3475C26.1836 17.5307 26.5894 17.8007 26.9082 17.9454C27.2271 18.0996 27.7874 18.2732 28.1643 18.3311C28.5507 18.3986 29.3527 18.4179 30.0483 18.3986C30.8986 18.36 31.4396 18.2925 31.8841 18.1479C32.2319 18.0418 32.7246 17.8007 32.9952 17.6175C33.256 17.4439 33.6425 17.0582 33.8454 16.7689C34.0483 16.4796 34.2995 15.9686 34.4058 15.6214C34.5121 15.2743 34.6473 14.58 34.6957 14.0786C34.7536 13.5675 34.7729 12.6514 34.744 12.0054C34.715 11.3689 34.6184 10.5782 34.5411 10.2407C34.4638 9.91286 34.2899 9.42107 34.1546 9.16071C34.0193 8.89071 33.7391 8.505 33.5266 8.29286C33.314 8.08071 32.9565 7.81071 32.7246 7.695C32.5024 7.58893 32.0966 7.43464 31.8358 7.3575C31.5652 7.29 30.7536 7.19357 28.6957 7.0875V9.35357L29.8937 9.37286C30.9275 9.40179 31.1304 9.43071 31.372 9.60429C31.5169 9.71036 31.7488 10.0093 31.8841 10.2793C32.1063 10.7132 32.1256 10.8771 32.1643 12.2946C32.1836 13.1914 32.1449 14.1171 32.087 14.5125C32.0193 14.8789 31.8744 15.3611 31.7585 15.5636C31.6425 15.7757 31.3913 16.0361 31.2077 16.1421C30.9179 16.3157 30.7053 16.3446 29.7585 16.3446C28.8116 16.3446 28.599 16.3157 28.3092 16.1421C28.1256 16.0361 27.8841 15.795 27.7778 15.6118C27.5942 15.2936 27.5845 15.0911 27.5556 7.83C27.5459 1.92857 27.5652 0.385714 27.6522 0.385714C27.7198 0.385714 28.1932 0.511071 28.6957 0.675C29.1981 0.829286 30.029 1.16679 30.5314 1.4175C31.0338 1.66821 31.7778 2.0925 32.1739 2.3625C32.5701 2.62286 33.2947 3.23036 33.7971 3.7125C34.2995 4.185 34.9855 4.94679 35.3333 5.4C35.6715 5.85321 36.1836 6.67286 36.4734 7.23214C36.7536 7.79143 37.1401 8.69786 37.3333 9.25714C37.5169 9.81643 37.7391 10.6843 37.8357 11.1857C37.942 11.7643 38 12.6129 38 13.5C38 14.4064 37.942 15.2357 37.8261 15.8625C37.7391 16.3929 37.5169 17.2607 37.343 17.7911C37.1691 18.3214 36.8406 19.1218 36.6184 19.575C36.3961 20.0282 35.942 20.7804 35.6135 21.2529C35.2947 21.735 34.6957 22.4679 34.2995 22.8825C33.9034 23.3068 33.1594 23.9625 32.657 24.3386C32.1546 24.7146 31.3043 25.2546 30.7729 25.5246C30.2415 25.7946 29.3527 26.1707 28.7923 26.3539C28.2319 26.5468 27.3623 26.7686 26.8599 26.8457C26.3188 26.9421 25.372 27 23.1884 27V11.1857H20.5797V18.8036C20.5797 24.8304 20.5507 26.4214 20.4541 26.4214C20.3961 26.4214 19.942 26.2575 19.4686 26.055C18.9855 25.8525 18.3188 25.5343 17.971 25.3414C17.6232 25.1486 16.9758 24.7243 16.5217 24.3868C16.0676 24.0589 15.3913 23.4707 15.0241 23.1043C14.6473 22.7282 14.1449 22.1593 13.9034 21.8411C13.6522 21.5229 13.2657 20.9539 13.0435 20.5875C12.8116 20.2114 12.4831 19.6039 12.3188 19.2375C12.1449 18.8614 11.8744 18.1286 11.7101 17.5982C11.5459 17.0679 11.3527 16.3736 11.285 16.0554C11.2077 15.6889 11.1594 14.7729 11.1594 13.5482C11.1594 12.015 11.1981 11.4461 11.343 10.8C11.4396 10.3468 11.6232 9.6525 11.7488 9.25714C11.8841 8.86179 12.2222 8.05179 12.5121 7.47321C12.8116 6.885 13.285 6.075 13.5749 5.67C13.8647 5.25536 14.1449 4.93714 14.2029 4.96607C14.2609 4.995 14.2995 6.91393 14.2995 10.4336C14.2995 13.7507 14.3382 16.065 14.3961 16.3929C14.4541 16.6821 14.6184 17.1161 14.7633 17.3571C14.9662 17.6754 15.1787 17.8682 15.6039 18.0804C16.1353 18.3504 16.2609 18.3696 18.8406 18.4661V16.2H18.0193C17.4203 16.2 17.1594 16.1614 17.0531 16.0554C16.9275 15.93 16.9082 15.0236 16.9082 2.3625L17.7005 1.88036C18.1449 1.62 18.9565 1.215 19.5169 0.993214C20.0773 0.771429 20.8985 0.491786 21.3526 0.385714C21.8068 0.279643 22.5024 0.154286 22.8985 0.106071C23.2947 0.0675 23.942 0.0192857 25.0242 0ZM20.686 7.61786C20.4638 7.87821 20.4348 8.01321 20.4348 8.63036C20.4348 9.2475 20.4638 9.37286 20.6763 9.59464C20.8116 9.73929 21.0338 9.91286 21.1787 9.99C21.3333 10.0671 21.6522 10.125 21.9034 10.125C22.1642 10.125 22.5121 10.0479 22.7053 9.95143C22.8889 9.855 23.1208 9.62357 23.2077 9.44036C23.3043 9.25714 23.3816 8.90036 23.3816 8.63036C23.3816 8.32179 23.314 8.04214 23.1884 7.83C23.0821 7.65643 22.8116 7.43464 22.5797 7.32857C22.3575 7.2225 22.0386 7.14536 21.8841 7.14536C21.7198 7.14536 21.4493 7.19357 21.2657 7.24179C21.0821 7.28036 20.8212 7.45393 20.686 7.61786ZM5.45893 7.0875C6.13526 7.07786 6.82125 7.13571 7.10145 7.21286C7.36232 7.28036 7.75845 7.425 7.97101 7.53107C8.18357 7.64679 8.54106 7.92643 8.76328 8.17714C8.99516 8.41821 9.2657 8.79429 9.37198 9.00643C9.47826 9.21857 9.63285 9.66214 9.71014 9.99C9.7971 10.3275 9.88405 11.2725 9.9227 12.0921C9.95169 12.96 9.93236 13.9532 9.87439 14.4546C9.81642 14.9271 9.68116 15.6021 9.56521 15.9493C9.45893 16.2964 9.22705 16.7882 9.04347 17.0582C8.8599 17.3186 8.48309 17.7043 8.19323 17.8971C7.91304 18.09 7.43961 18.3214 7.14976 18.4179C6.78261 18.5239 6.16425 18.5914 3.6715 18.6493V16.335H4.54106C5.01449 16.335 5.5942 16.2868 5.81642 16.2386C6.04831 16.1807 6.35749 16.0168 6.51207 15.8721C6.66666 15.7275 6.8599 15.4671 6.92753 15.2936C6.99517 15.1296 7.10145 14.5414 7.15942 13.9918C7.21739 13.4518 7.23671 12.555 7.20773 11.9957C7.16908 11.4364 7.07246 10.7518 6.97584 10.4625C6.87922 10.1636 6.70531 9.84536 6.54106 9.71036C6.39613 9.59464 6.09662 9.44036 5.86473 9.3825C5.64251 9.32464 5.13043 9.29571 4.7343 9.315C4.26087 9.34393 3.87439 9.42107 3.62319 9.54643C3.41063 9.66214 3.14976 9.89357 3.04348 10.0768C2.8599 10.395 2.85024 10.5975 2.80193 22.5064H0V7.17429H0.79227C1.23671 7.17429 1.75845 7.21286 1.96135 7.25143C2.27053 7.30929 2.31884 7.3575 2.31884 7.57929C2.31884 7.73357 2.3285 7.84929 2.33816 7.84929C2.35749 7.84929 2.56039 7.74321 2.80193 7.61786C3.04348 7.48286 3.47826 7.30929 3.76811 7.23214C4.08695 7.14536 4.75362 7.0875 5.45893 7.0875Z" fill="#373737"/>
</svg>
