<svg width="51" height="43" viewBox="0 0 51 43" fill="none" xmlns="http://www.w3.org/2000/svg">
<path d="M0 17H8V12L18 20.5L8 31.5V25.5H0" stroke="#373737" stroke-width="2"/>
<path fill-rule="evenodd" clip-rule="evenodd" d="M48.0001 21.5C48.0001 31.9395 39.3241 40.5 28.5001 40.5C22.9971 40.5 18.0494 38.2874 14.5147 34.7401L12.927 36.6864C16.9095 40.5868 22.4164 43 28.5001 43C40.6503 43 50.5001 33.3741 50.5001 21.5C50.5001 9.62588 40.6503 0 28.5001 0C20.857 0 14.1243 3.80893 10.1809 9.59042L12.4417 10.7208C15.9502 5.76483 21.8155 2.5 28.5001 2.5C39.3241 2.5 48.0001 11.0605 48.0001 21.5Z" fill="#373737"/>
<path d="M29.1161 19.288C29.1161 19.8853 28.9721 20.4453 28.6841 20.968C28.4068 21.4907 27.9641 21.912 27.3561 22.232C26.7588 22.552 26.0015 22.712 25.0841 22.712H23.2121V27H20.9721V15.832H25.0841C25.9481 15.832 26.6841 15.9813 27.2921 16.28C27.9001 16.5787 28.3535 16.9893 28.6521 17.512C28.9615 18.0347 29.1161 18.6267 29.1161 19.288ZM24.9881 20.904C25.6068 20.904 26.0655 20.7653 26.3641 20.488C26.6628 20.2 26.8121 19.8 26.8121 19.288C26.8121 18.2 26.2041 17.656 24.9881 17.656H23.2121V20.904H24.9881ZM32.7815 17.64V20.44H36.5415V22.216H32.7815V25.176H37.0215V27H30.5415V15.816H37.0215V17.64H32.7815ZM41.1321 25.224H44.8121V27H38.8921V15.832H41.1321V25.224Z" fill="#373737"/>
</svg>
