<svg width="30" height="30" viewBox="0 0 30 30" fill="none" xmlns="http://www.w3.org/2000/svg">
<path d="M6.99027 2.27652C-1.42792 7.69565 -2.39 19.181 4.90577 26.1369C13.9653 34.7913 30 27.9163 30 15.2986C30 11.0118 28.0758 6.40153 25.0293 3.57064C20.6197 -0.635256 12.2817 -1.20144 6.99027 2.27652ZM22.4637 3.40887C28.2362 7.37212 30.3207 16.431 26.5525 22.0119C23.5861 26.4604 20.0585 28.4016 14.7671 28.4016C-0.0649756 28.4016 -3.91329 8.82801 9.55582 2.3574C13.6447 0.416218 18.6154 0.820631 22.4637 3.40887Z" fill="black"/>
<path d="M8.28853 8.23435C7.41013 10.6307 8.60796 12.2034 10.9238 11.9787C12.6806 11.8289 13 11.3796 13 9.50743C13 7.63526 12.6806 7.18593 10.8439 7.03616C9.32665 6.88639 8.60796 7.18593 8.28853 8.23435ZM12.441 9.35765C12.7604 11.0052 10.2849 11.9787 9.40651 10.5558C8.60796 9.43254 9.9655 7.4106 11.323 7.85992C11.8022 8.00969 12.2813 8.68367 12.441 9.35765Z" fill="black"/>
<path d="M14.7142 14.5C10.6279 18.6053 7.64182 22 8.03473 22C8.50622 22 12.1996 18.6053 16.2858 14.5C20.3721 10.3947 23.3582 7 22.9653 7C22.4938 7 18.8004 10.3947 14.7142 14.5Z" fill="black"/>
<path d="M18.1805 17.2164C17.2629 18.0137 16.804 19.2539 17.0793 19.9626C17.3546 20.6712 17.6299 21.4685 17.6299 21.6457C17.6299 21.8228 18.9146 22 20.3829 22C23.5029 22 24.8794 19.9626 23.4111 17.6593C22.1264 15.6219 19.9241 15.4447 18.1805 17.2164ZM22.2182 19.431C22.2182 20.6712 21.7594 21.1142 20.6582 20.937C18.2723 20.4941 17.997 17.5708 20.2911 17.5708C21.6676 17.5708 22.2182 18.1023 22.2182 19.431Z" fill="black"/>
</svg>
