<svg width="27" height="26" viewBox="0 0 27 26" fill="none" xmlns="http://www.w3.org/2000/svg">
<path d="M9.90045 1.70329C4.85888 3.95074 4.00849 9.90344 8.13894 13.6694C10.6901 16.0384 13.7879 16.3421 16.825 14.4591C19.2547 13.0013 20.1051 11.422 20.1658 8.26341C20.2266 4.6189 18.0399 2.12848 13.6664 0.852901C12.9983 0.670675 11.2975 1.03513 9.90045 1.70329ZM15.0635 2.67516C16.4606 3.28257 16.9465 3.76851 16.3998 3.88999C15.9139 4.07222 13.7879 5.04409 11.7227 6.13744C8.8071 7.59525 7.77449 7.89895 7.22781 7.35228C6.1952 6.31967 8.01746 3.64703 10.5079 2.61441C12.9375 1.52106 12.3909 1.52106 15.0635 2.67516ZM17.6147 5.95522C18.8902 5.95522 19.5584 8.44563 18.7688 10.2679C16.7035 15.3095 9.536 15.8561 7.41004 11.1183C6.43817 9.05305 6.37743 9.17453 8.68562 8.6886C9.71823 8.44563 11.2975 7.77747 12.1479 7.17005C14.1524 5.83373 15.3065 5.40854 16.2783 5.71225C16.7643 5.83373 17.3717 5.95522 17.6147 5.95522Z" fill="black"/>
<path d="M4.4949 19.8651C2.55116 21.0799 0 24.1777 0 25.3318C0 26.4252 1.09335 26.0607 1.51855 24.8459C1.883 23.5703 4.73786 20.5332 5.52751 20.5332C5.83122 20.5332 7.22828 21.5658 8.5646 22.7807L11.1158 25.0889L11.9661 23.7526L12.8773 22.3555L13.9706 23.7526L15.1247 25.0889L17.5544 22.7199C19.9233 20.4117 19.9841 20.351 21.5026 21.3836C22.353 21.9303 23.5071 23.2059 23.993 24.1777C24.5397 25.2104 25.2079 26 25.5723 26C25.9368 26 26.119 25.8178 25.9975 25.5141C24.479 22.4162 23.6286 21.4444 21.4419 20.108C19.3766 18.8932 18.344 18.6502 16.5218 18.9539C13.8491 19.4399 12.7558 19.4399 9.11128 19.0147C7.04605 18.711 5.9527 18.9539 4.4949 19.8651ZM10.3869 20.2903C11.9054 21.0192 12.0876 21.3836 11.541 22.0518C10.9335 22.8414 10.5691 22.7199 9.11128 21.5658C8.20015 20.8369 7.59273 20.0473 7.71421 19.7436C8.07867 19.1362 8.32163 19.1969 10.3869 20.2903ZM17.8581 19.8651C18.0403 20.108 17.4937 21.0192 16.6433 21.8088C15.3677 23.0236 15.0032 23.0844 14.578 22.3555C13.7277 21.0192 13.8491 20.7762 15.3677 20.0473C17.0685 19.2577 17.4937 19.1969 17.8581 19.8651Z" fill="black"/>
</svg>
