<svg width="44" height="39" viewBox="0 0 44 39" fill="none" xmlns="http://www.w3.org/2000/svg">
<path fill-rule="evenodd" clip-rule="evenodd" d="M14.989 0.494519C14.5582 0.582431 13.8198 0.775838 13.3626 0.93408C12.9055 1.09232 12.2462 1.35606 11.9121 1.53188C11.578 1.69891 11.1385 1.94507 10.9451 2.06815C10.7516 2.19122 10.2945 2.5165 9.93407 2.78902C9.57363 3.06155 9.04615 3.5187 8.75604 3.80001C8.47473 4.09012 8.01758 4.6176 7.74506 4.97804C7.47253 5.33847 7.14725 5.79562 7.02418 5.98902C6.9011 6.18243 6.65495 6.62199 6.48791 6.95606C6.31209 7.29012 6.03077 7.98463 5.86374 8.49452C5.68791 9.00441 5.5033 9.67254 5.45055 9.98902C5.3978 10.3055 5.30989 10.9385 5.27473 11.3956C5.23077 11.8528 5.1956 15.6066 5.18681 19.7297V27.2198C4.74725 27.6506 4.45714 27.8967 4.26374 28.055C4.15654 28.1378 3.8225 28.4043 3.38584 28.7526C3.03466 29.0327 2.6171 29.3658 2.1978 29.6989C1.25714 30.455 0.378022 31.1758 0.237363 31.2989C0.105495 31.422 0 31.5627 0 31.6154C0 31.6681 0.0791209 31.7033 0.175824 31.7033C0.272527 31.7033 0.43956 31.7385 0.553846 31.7824C0.659341 31.8264 1.01978 31.9231 1.36264 32.0022C1.70549 32.0725 2.32967 32.2132 2.76923 32.3187C3.06663 32.3841 3.39622 32.4616 3.6382 32.5185C3.75388 32.5457 3.84954 32.5682 3.91209 32.5824C3.9747 32.5967 4.07048 32.6192 4.18631 32.6464C4.42826 32.7033 4.75769 32.7808 5.05494 32.8462C5.49451 32.9429 6.02198 33.0659 6.24176 33.1275C6.46154 33.1802 6.74286 33.2769 6.88352 33.3473C7.01539 33.4088 7.17363 33.567 7.24396 33.7077C7.30549 33.8396 7.41978 34.0066 7.48132 34.0769C7.55165 34.1473 7.76264 34.411 7.94725 34.6484C8.14066 34.8945 8.63297 35.4132 9.04615 35.8176C9.46813 36.2132 9.81978 36.5385 9.84615 36.5385C9.87253 36.5385 10.0044 36.6352 10.1538 36.7583C10.3033 36.8901 10.4967 37.0308 10.5934 37.0747C10.6901 37.1187 10.8835 37.233 11.033 37.3297C11.1824 37.4176 11.6132 37.655 12 37.8484C12.3868 38.033 13.0198 38.2967 13.4066 38.4286C13.7934 38.5605 14.4791 38.7451 14.9275 38.833C15.6923 38.9912 16.2374 39 24.6154 39C32.9495 39 33.5473 38.9912 34.3121 38.833C34.7516 38.7451 35.4989 38.5429 35.956 38.3846C36.4132 38.2264 37.1253 37.9187 37.5385 37.7077C37.9516 37.4879 38.3473 37.2594 38.4176 37.189C38.4879 37.1275 38.5758 37.0659 38.6198 37.0659C38.6549 37.0659 38.8484 36.9429 39.0593 36.7846C39.2615 36.6264 39.7011 36.2572 40.044 35.967C40.3868 35.6681 40.9582 35.0528 41.3275 34.5956C41.6967 34.1385 42.1099 33.5758 42.2505 33.3297C42.4 33.0923 42.6549 32.5912 42.8308 32.2308C43.0066 31.8703 43.2703 31.211 43.411 30.7802C43.5604 30.3495 43.7451 29.611 43.8418 29.1539C43.9912 28.3802 44 27.7209 44 19.7033C44 12.855 43.9736 10.9561 43.8857 10.4286C43.8154 10.0681 43.7011 9.54946 43.6308 9.28573C43.5516 9.02199 43.4022 8.54727 43.2967 8.23078C43.1824 7.9143 42.9538 7.36045 42.778 7.00001C42.6022 6.63957 42.4088 6.26155 42.3473 6.16485C42.2857 6.06815 41.978 5.63738 41.6615 5.19782C41.3451 4.76705 40.8088 4.13408 40.4747 3.80001C40.1407 3.46595 39.5517 2.96485 39.1648 2.67474C38.778 2.39342 38.4176 2.13848 38.3648 2.10331C38.3235 2.06193 38.1963 1.98937 38.0789 1.92233L38.0571 1.9099C37.9429 1.83957 37.5912 1.65496 37.2747 1.49672C36.9582 1.33848 36.2901 1.07474 35.7802 0.907706C35.2703 0.740673 34.4879 0.538475 34.0484 0.459354C33.3363 0.336278 32.1407 0.318695 24.5099 0.327486C16.5363 0.336278 15.7099 0.35386 14.989 0.494519ZM15.3405 4.48569C14.9097 4.59998 14.268 4.81976 13.9339 4.978C13.5998 5.13624 13.1427 5.39118 12.9229 5.54063C12.7031 5.69008 12.4306 5.89228 12.3075 5.98899C12.1932 6.08569 11.8768 6.38459 11.6042 6.64833C11.3405 6.92085 11.0416 7.23734 10.9449 7.35162C10.8482 7.4747 10.646 7.74723 10.4965 7.96701C10.3471 8.18679 10.0921 8.64393 9.93391 8.978C9.77566 9.31206 9.55588 9.9714 9.4416 10.4285L9.23061 11.2637C9.23061 27.6329 9.2394 28.134 9.39764 28.7846C9.48555 29.1538 9.6438 29.6549 9.7405 29.9011C9.8372 30.1384 10.0482 30.5868 10.2064 30.8945C10.3735 31.1934 10.7427 31.7296 11.0328 32.0813C11.3229 32.4241 11.7976 32.9077 12.079 33.1538C12.3691 33.3912 12.791 33.7165 13.0108 33.8571C13.2394 33.9978 13.5559 34.1912 13.7229 34.2703C13.8899 34.3494 14.1801 34.4813 14.3735 34.5604C14.5669 34.6395 15.0416 34.789 15.4284 34.8945C16.1317 35.0879 16.1405 35.0879 24.6152 35.0879H33.0987C34.2592 34.7714 34.813 34.578 35.0768 34.4549C35.2696 34.3649 35.4812 34.2702 35.6189 34.2087C35.6695 34.186 35.7101 34.1678 35.7361 34.156C35.8206 34.1176 35.9522 34.0456 36.0486 33.9928C36.0624 33.9852 36.0756 33.978 36.0878 33.9714C36.1642 33.9228 36.3284 33.8028 36.4894 33.6852C36.5321 33.654 36.5746 33.6229 36.6152 33.5934C36.8086 33.4527 37.0812 33.2329 37.2306 33.1099C37.3713 32.9868 37.5647 32.811 37.6702 32.7143C37.7669 32.6088 37.9427 32.4154 38.0658 32.2747C38.1889 32.1252 38.4086 31.8527 38.5581 31.6593C38.7075 31.4659 38.857 31.2461 38.8834 31.1758C38.9185 31.1055 39.0328 30.9033 39.1295 30.7362C39.235 30.5692 39.402 30.1912 39.5163 29.9011C39.6218 29.611 39.7801 29.0747 39.8768 28.7143C40.035 28.0901 40.0438 27.6242 40.0438 19.6593C40.0438 11.8791 40.035 11.2198 39.8856 10.6483C39.7976 10.3055 39.5867 9.6725 39.4108 9.24173C39.2262 8.80217 38.9361 8.23074 38.7603 7.96701C38.5845 7.70327 38.1449 7.18459 37.7932 6.82415C37.4328 6.45492 36.9669 6.00657 36.7471 5.83074C36.5273 5.64613 35.9911 5.32965 35.5603 5.10987C35.1295 4.89008 34.3735 4.61756 33.8899 4.49448L33.0108 4.2747L16.1317 4.29228L15.3405 4.48569Z" fill="#363636"/>
<path d="M30.7782 19.7296C31.0419 19.5538 31.4463 19.2285 31.6925 19.0088C31.9386 18.789 32.1584 18.6044 32.2024 18.6044C32.2375 18.6044 32.2639 18.6132 32.2639 18.6307C32.2639 18.6395 31.9211 18.9296 31.4991 19.2637C31.0683 19.6066 30.62 19.9582 30.4881 20.0373C30.3474 20.1165 30.2595 20.1604 30.2771 20.1252C30.2947 20.0813 30.5233 19.9055 30.7782 19.7296Z" fill="#363636"/>
<path d="M17.9606 19.167C17.8463 19.0967 17.7584 19 17.7672 18.9472C17.776 18.9033 17.9606 19.0176 18.1892 19.211C18.4119 19.4044 18.6932 19.6447 19.0331 19.9318L18.7694 19.7736C18.6287 19.6857 18.4265 19.545 18.3298 19.4571C18.2331 19.3604 18.0661 19.2373 17.9606 19.167Z" fill="#363636"/>
<path d="M19.7189 20.3978C19.4112 20.2307 19.1386 20.0461 19.1035 19.9934C19.0595 19.9055 19.0683 19.9055 19.1738 19.9846C19.2441 20.0373 19.5958 20.2483 19.9562 20.4505C20.3167 20.6527 20.5364 20.7934 20.4397 20.7582C20.343 20.7318 20.0178 20.5648 19.7189 20.3978Z" fill="#363636"/>
<path d="M32.9233 21.0571C33.1606 20.8461 33.4507 20.5648 33.5738 20.4329C33.6881 20.2923 33.8024 20.1868 33.82 20.1868C33.8287 20.1868 33.8463 20.2044 33.8463 20.2307C33.8463 20.2571 33.6178 20.4945 33.3452 20.767C33.0639 21.0395 32.7562 21.3033 32.6595 21.356C32.5628 21.4 32.6771 21.2681 32.9233 21.0571Z" fill="#363636"/>
<path d="M30.4969 22.7011C30.4881 22.6747 30.7342 22.5165 31.0419 22.3494C31.3496 22.1736 31.6222 22.0329 31.6485 22.0329C31.6661 22.0329 31.6485 22.0681 31.6046 22.1033C31.5518 22.1472 31.2881 22.3055 31.0156 22.4549C30.7342 22.6132 30.4969 22.7187 30.4969 22.7011Z" fill="#363636"/>
<path d="M15.8242 19.1055C15.877 19 16.0616 18.8242 16.2462 18.7187C16.422 18.6044 16.6858 18.5165 16.8352 18.5165C16.9759 18.5165 17.2308 18.5956 17.3803 18.6923C17.5385 18.789 17.7407 18.9385 17.8286 19.0176C17.9165 19.1055 18.11 19.2725 18.2506 19.3956C18.3913 19.5187 18.7869 19.8 19.1209 20.0286C19.4638 20.2483 20.0089 20.5648 20.3517 20.7231C20.6946 20.8725 21.2045 21.0835 21.4946 21.1802C21.7847 21.2769 22.1979 21.3912 22.4176 21.4264C22.6374 21.4615 22.9891 21.5407 23.2089 21.5934C23.4726 21.6637 24.1143 21.6813 25.099 21.6549C25.9253 21.6374 26.7165 21.5758 26.8572 21.5231C26.9979 21.4703 27.2968 21.3912 27.5165 21.3297C27.7363 21.2769 28.0352 21.2066 28.1759 21.1626C28.3165 21.1275 28.8176 20.9077 29.2748 20.6791C29.7319 20.4505 30.2506 20.178 30.4176 20.0725C30.5847 19.9758 31.1122 19.5802 31.5781 19.2022C32.3517 18.5868 32.4748 18.5165 32.8089 18.5165C33.1341 18.5253 33.2396 18.578 33.5561 18.8945C33.8726 19.211 33.9253 19.3165 33.9341 19.633C33.9341 19.9231 33.8726 20.0813 33.688 20.2923C33.5561 20.4505 33.31 20.6967 33.1429 20.8549C32.9759 21.0044 32.7385 21.2154 32.6154 21.3209C32.4924 21.4176 32.255 21.6022 32.088 21.7165C31.9209 21.8308 31.4023 22.1385 30.9451 22.4022C30.488 22.6659 29.8111 23 29.4506 23.1494C29.0902 23.2989 28.5715 23.4835 28.3078 23.5538C28.044 23.6242 27.6484 23.7385 27.4286 23.7912C27.2089 23.844 26.5583 23.9231 25.9781 23.967C25.3979 24.011 24.51 24.0286 24.0001 24.0022C23.4902 23.9846 22.7781 23.8967 22.4176 23.8264C22.0572 23.7472 21.5209 23.6066 21.2308 23.5187C20.9407 23.4308 20.5363 23.2989 20.3253 23.2198C20.1231 23.1494 19.6133 22.9121 19.1825 22.7011C18.7605 22.4901 18.2154 22.1824 17.9781 22.0242C17.7319 21.8571 17.477 21.6813 17.4067 21.6198C17.3363 21.5582 17.1165 21.3912 16.9231 21.233C16.7297 21.0835 16.422 20.8286 16.2374 20.6615C16.0616 20.4945 15.8682 20.2835 15.8242 20.1868C15.7715 20.0901 15.7363 19.8527 15.7363 19.6593C15.7363 19.4659 15.7803 19.2198 15.8242 19.1055Z" fill="#363636"/>
</svg>
