<svg width="47" height="29" viewBox="0 0 47 29" fill="none" xmlns="http://www.w3.org/2000/svg">
<path d="M5.61367 0.698282C5.21465 0.997547 4.91538 6.18482 4.91538 12.1701C4.91538 22.844 4.91538 23.0435 2.4215 23.9413C-0.371648 25.0386 -0.670914 25.9364 1.12468 27.732C2.52126 29.1285 45.3163 29.5276 46.1143 28.131C46.4136 27.732 36.5378 27.4327 24.0684 27.4327C6.51147 27.4327 1.5237 27.1334 1.12468 26.1359C0.825415 25.0386 5.21465 24.9388 24.2679 25.1383C44.9173 25.4376 51.0023 24.9388 44.3187 23.7418C42.5231 23.4425 42.3236 22.5447 42.0243 11.6714L41.7251 -5.72205e-06H23.9686C14.1926 -5.72205e-06 5.91293 0.299261 5.61367 0.698282ZM40.6278 12.1701L40.3285 23.4425L25.3652 23.7418C17.1853 23.8415 9.40437 23.7418 8.20731 23.4425C6.01269 22.9437 5.91293 22.4449 5.91293 12.5692C5.91293 6.98286 6.2122 1.9951 6.61122 1.69584C6.91049 1.29681 14.7912 0.997547 24.0684 0.997547H40.927L40.6278 12.1701Z" fill="black"/>
<path d="M8.606 3.69098C8.20698 3.99024 7.90771 8.08021 7.90771 12.669C7.90771 20.6494 8.00747 20.9486 10.2021 20.8489C11.8979 20.7491 11.9977 20.6494 10.6011 20.2504C9.10478 19.8513 8.90527 18.754 9.10478 12.1702L9.40404 4.48902H24.0681C32.0485 4.48902 38.4328 4.18975 38.1336 3.69098C37.6348 2.79318 9.5038 2.69342 8.606 3.69098Z" fill="black"/>
<path d="M38.0337 10.9731C38.0337 12.8685 38.2332 13.6665 38.5325 12.669C38.732 11.7712 38.732 10.1751 38.5325 9.17753C38.2332 8.27973 38.0337 9.07777 38.0337 10.9731Z" fill="black"/>
<path d="M19.1803 20.6494C22.8712 20.8489 28.8565 20.8489 32.6472 20.6494C36.3382 20.4499 33.2458 20.3501 25.8639 20.3501C18.482 20.3501 15.3896 20.4499 19.1803 20.6494Z" fill="black"/>
</svg>
