<svg width="159" height="37" viewBox="0 0 159 37" fill="none" xmlns="http://www.w3.org/2000/svg">
<path fill-rule="evenodd" clip-rule="evenodd" d="M27.0514 28.3117L35.363 28.358L35.3514 18.2418L31.8049 18.2492L31.8009 24.9267C28.6602 24.9639 25.7995 25.1314 23.639 23.4595C21.9487 22.1515 20.7903 19.7394 21.4748 16.5444C22.9952 9.4452 31.945 12.1934 34.036 11.9227L34.0487 8.28678C31.5689 7.62508 25.4613 8.19843 23.236 9.09187C13.3711 13.0521 16.2241 28.5392 27.0514 28.3117Z" fill="#010101"/>
<path fill-rule="evenodd" clip-rule="evenodd" d="M0.19135 28.4903C4.18939 28.504 9.77098 29.1394 12.926 27.2783C16.0685 25.4249 16.5319 20.3982 13.4556 18.2023C10.834 16.3311 4.21323 16.6878 3.99276 14.0423C3.67313 10.2097 11.7723 11.8616 14.2996 12.217L14.2916 8.0931C10.2571 8.12187 5.13572 7.45382 2.14145 9.66331C-0.993695 11.9773 -0.573139 16.7292 2.6633 18.6166C5.40843 20.2169 12.3506 19.6124 11.4845 23.1632C10.6955 26.399 3.23814 24.6938 0.208485 24.4425L0.19135 28.4903Z" fill="#010101"/>
<path d="M83 0H44V16.5807H83V0Z" fill="#E50027"/>
<path d="M83.0002 19.6971H44.0002V36.2778H83.0002V19.6971Z" fill="black"/>
<path d="M100.356 11.0086C99.4564 10.632 98.4371 10.3181 97.5976 10.3181C96.3384 10.3181 95.6788 10.632 95.6788 11.1341C95.6788 12.5777 101.375 11.4479 101.375 14.5863C101.375 15.9044 100.236 16.9087 97.8974 16.9087C96.5183 16.9087 95.4389 16.5948 94.1797 15.9044L94.7194 14.7118C95.7987 15.3395 96.8181 15.6533 97.8974 15.6533C99.2766 15.6533 99.9961 15.214 99.9961 14.5863C99.9961 12.9543 94.2996 14.2097 94.2996 11.2596C94.2996 10.0043 95.4389 9.12555 97.5376 9.12555C98.7968 9.12555 99.8162 9.43938 100.836 9.94152L100.356 11.0086Z" fill="black"/>
<path d="M106.712 16.9087C104.433 16.9087 102.574 15.3395 102.574 12.9543C102.574 10.6319 104.433 9 106.712 9C108.991 9 110.849 10.6319 110.849 12.9543C110.789 15.3395 108.991 16.9087 106.712 16.9087ZM106.712 10.2553C105.033 10.2553 103.954 11.4479 103.954 12.9543C103.954 14.4607 105.033 15.6533 106.712 15.6533C108.391 15.6533 109.47 14.5235 109.47 12.9543C109.47 11.4479 108.391 10.2553 106.712 10.2553Z" fill="black"/>
<path d="M116.246 16.9087C113.848 16.9087 112.049 15.3395 112.049 12.9543C112.049 10.6319 113.848 9 116.246 9C117.626 9 118.645 9.43936 119.544 10.1298L118.825 11.1969C118.165 10.6947 117.326 10.2553 116.246 10.2553C114.508 10.2553 113.428 11.3852 113.428 12.8916C113.428 14.398 114.508 15.5278 116.246 15.5278C117.326 15.5278 118.225 15.1512 118.825 14.6491L119.544 15.7161C118.705 16.4693 117.626 16.9087 116.246 16.9087Z" fill="black"/>
<path d="M121.043 9.25107H122.363V16.7204H121.043V9.25107Z" fill="black"/>
<path d="M124.281 16.6576V9.25107H130.757V10.4436H125.6V12.2639H129.618V13.5193H125.6V15.465H130.997V16.6576H124.281Z" fill="black"/>
<path d="M131.717 10.4436V9.25107H138.852V10.4436H135.914V16.6576H134.595V10.4436H131.717Z" fill="black"/>
<path d="M139.872 16.6576V9.25107H146.348V10.4436H141.191V12.2639H145.208V13.5193H141.191V15.465H146.587V16.6576H139.872Z" fill="black"/>
<path d="M98.2574 25.5078C98.9769 25.5078 99.6965 25.3195 100.296 25.0684V22.9343H101.555V25.8216C100.656 26.4493 99.3967 26.8259 98.1974 26.8259C95.7989 26.8259 94 25.2567 94 22.8716C94 20.5492 95.7989 18.9172 98.1974 18.9172C99.5766 18.9172 100.596 19.2938 101.495 20.047L100.776 21.1141C100.116 20.6119 99.2767 20.2353 98.1974 20.2353C96.4585 20.1726 95.3791 21.3651 95.3791 22.8716C95.3791 24.378 96.4585 25.5078 98.2574 25.5078Z" fill="black"/>
<path d="M103.294 26.5748V19.1683H109.77V20.3609H104.613V22.1811H108.631V23.4365H104.613V25.3823H110.01V26.5748H103.294Z" fill="black"/>
<path d="M112.588 26.5748H111.269V19.1055H112.588L117.206 24.6918H117.266C117.206 23.3109 117.206 22.1184 117.206 21.0513V19.1055H118.465V26.5748H117.146L112.529 20.9885C112.588 22.1184 112.588 24.0014 112.588 24.629V26.5748Z" fill="black"/>
<path d="M120.324 26.5748V19.1683H126.8V20.3609H121.643V22.1811H125.661V23.4365H121.643V25.3823H127.04V26.5748H120.324Z" fill="black"/>
<path d="M131.897 23.8758H129.798V26.6376H128.479V19.1683H133.036C134.535 19.1683 135.494 20.1726 135.494 21.5535C135.494 22.8716 134.595 23.6875 133.456 23.8758L135.554 26.6376H133.875L131.897 23.8758ZM132.856 22.6205C133.696 22.6205 134.175 22.1811 134.175 21.5535C134.175 20.863 133.755 20.4236 133.036 20.4236H129.798V22.6833H132.856V22.6205Z" fill="black"/>
<path d="M138.253 24.8174L137.413 26.6376H135.974L139.452 19.1683H140.831L144.309 26.6376H142.87L142.03 24.8174H138.253ZM138.792 23.562H141.551L140.172 20.5492L138.792 23.562Z" fill="black"/>
<path d="M145.328 26.5748V19.1683H146.648V25.3823H151.385V26.5748H145.328Z" fill="black"/>
<path d="M152.284 26.5748V19.1683H158.76V20.3609H153.603V22.1811H157.621V23.4365H153.603V25.3823H159V26.5748H152.284Z" fill="black"/>
</svg>
