<svg width="27" height="25" viewBox="0 0 27 25" fill="none" xmlns="http://www.w3.org/2000/svg">
<path d="M11.3306 3.7009C9.86608 6.64652 8.94113 7.55287 7.09124 7.85498C5.85798 8.08157 3.69978 8.53474 2.38944 8.76133L0 9.2145L3.16023 12.3867L6.32046 15.5589L5.85798 20.3172L5.31843 25L9.63484 22.9607L13.9513 20.8459L17.9593 22.8852C20.1175 24.0181 22.1216 24.8489 22.2758 24.6979C22.4299 24.4713 22.1987 22.7341 21.7362 20.7704C20.7342 16.2387 21.1196 14.9547 24.434 12.4622C27.7483 10.0453 27.8254 9.29003 24.8194 8.76133C23.5861 8.53474 21.505 8.1571 20.2717 7.85498C18.576 7.55287 17.651 6.64652 16.2636 3.7009C15.2616 1.66163 14.1825 0 13.8742 0C13.5659 0 12.4097 1.66163 11.3306 3.7009ZM16.0324 5.43807C17.651 8.53474 18.4218 9.06344 21.505 9.06344C24.9735 9.06344 25.1277 9.96979 22.1987 12.9909C19.6551 15.5589 19.578 15.7855 20.2717 18.8822C20.6571 20.6193 20.8113 22.281 20.58 22.5831C20.2717 22.8097 18.8072 22.281 17.2656 21.3746L14.4137 19.7885L14.1825 11.4048C14.1054 6.79758 14.1825 3.02115 14.3366 3.02115C14.5679 3.02115 15.3387 4.15408 16.0324 5.43807Z" fill="black"/>
</svg>
