<svg width="43" height="42" viewBox="0 0 43 42" fill="none" xmlns="http://www.w3.org/2000/svg">
<path d="M15 11H14V13H15V14C15.0019 15.2148 15.3193 16.4083 15.9211 17.4636C16.5229 18.5189 17.3884 19.3998 18.433 20.02C18.788 20.23 19 20.567 19 20.921V21.079C19 21.433 18.788 21.77 18.434 21.979C17.3892 22.5993 16.5235 23.4804 15.9215 24.5358C15.3196 25.5913 15.002 26.785 15 28V29H14V31H30V29H29V28C28.998 26.785 28.6804 25.5913 28.0785 24.5358C27.4765 23.4804 26.6108 22.5993 25.566 21.979C25.212 21.771 25 21.434 25 21.079V20.921C25 20.567 25.212 20.231 25.566 20.021C26.6108 19.4007 27.4765 18.5196 28.0785 17.4642C28.6804 16.4087 28.998 15.215 29 14V13H30V11H15ZM27 14C26.9987 14.8674 26.7722 15.7195 26.3428 16.4731C25.9133 17.2266 25.2956 17.8558 24.55 18.299C23.8973 18.6789 23.4053 19.2836 23.166 20H20.834C20.5941 19.2834 20.1019 18.6785 19.449 18.298C18.7036 17.8549 18.0861 17.2259 17.6568 16.4725C17.2275 15.7191 17.0012 14.8671 17 14V13H27V14Z" fill="#373737"/>
<path d="M41.75 21C41.75 31.8801 32.7117 40.75 21.5 40.75C10.2883 40.75 1.25 31.8801 1.25 21C1.25 10.1199 10.2883 1.25 21.5 1.25C32.7117 1.25 41.75 10.1199 41.75 21Z" stroke="#373737" stroke-width="2.5"/>
</svg>
