<svg width="59" height="53" viewBox="0 0 59 53" fill="none" xmlns="http://www.w3.org/2000/svg">
<path fill-rule="evenodd" clip-rule="evenodd" d="M20.0989 1.02203C19.5213 1.13991 18.5311 1.39925 17.9181 1.61144C17.3051 1.82363 16.421 2.17727 15.973 2.41304C15.5251 2.63701 14.9357 2.96708 14.6763 3.13212C14.417 3.29715 13.804 3.73332 13.3207 4.09875C12.8374 4.46419 12.1301 5.07717 11.7411 5.4544C11.3638 5.84341 10.7508 6.5507 10.3854 7.03402C10.02 7.51733 9.58382 8.13032 9.41878 8.38966C9.25375 8.649 8.92368 9.23841 8.6997 9.68636C8.46394 10.1343 8.08671 11.0656 7.86274 11.7493C7.62697 12.433 7.37942 13.3289 7.30869 13.7533C7.23796 14.1777 7.12008 15.0264 7.07293 15.6394C7.01399 16.2524 6.96683 21.286 6.95504 26.8146V36.8582C6.36563 37.4358 5.97662 37.7659 5.71728 37.9781C5.57354 38.0891 5.12559 38.4465 4.54004 38.9136C4.06915 39.2892 3.50927 39.7358 2.94705 40.1825C1.68571 41.1963 0.506893 42.1629 0.318282 42.3279C0.141459 42.493 0 42.6816 0 42.7523C0 42.823 0.106094 42.8702 0.235764 42.8702C0.365435 42.8702 0.589411 42.9173 0.742657 42.9763C0.884116 43.0352 1.36743 43.1649 1.82717 43.271C2.28691 43.3653 3.12388 43.5539 3.71329 43.6954C4.11201 43.7831 4.55388 43.887 4.87835 43.9633C5.03353 43.9998 5.16185 44.0299 5.24575 44.049C5.32964 44.0681 5.45794 44.0982 5.61308 44.1347C5.93756 44.211 6.37947 44.3149 6.77822 44.4026C7.36763 44.5323 8.07493 44.6974 8.36963 44.7799C8.66434 44.8506 9.04156 44.9803 9.23017 45.0746C9.40699 45.1571 9.61918 45.3693 9.71349 45.5579C9.796 45.7347 9.94925 45.9587 10.0318 46.053C10.1261 46.1473 10.409 46.5009 10.6565 46.8192C10.9159 47.1493 11.576 47.8448 12.1301 48.3871C12.6959 48.9175 13.1674 49.3537 13.2028 49.3537C13.2382 49.3537 13.415 49.4834 13.6154 49.6484C13.8158 49.8252 14.0751 50.0138 14.2048 50.0728C14.3345 50.1317 14.5938 50.285 14.7942 50.4146C14.9946 50.5325 15.5722 50.8508 16.0909 51.1101C16.6096 51.3577 17.4583 51.7113 17.977 51.8882C18.4957 52.065 19.4152 52.3125 20.0164 52.4304C21.042 52.6426 21.7728 52.6544 33.007 52.6544C44.1822 52.6544 44.9838 52.6426 46.0094 52.4304C46.5988 52.3125 47.6008 52.0414 48.2138 51.8292C48.8268 51.617 49.7816 51.2044 50.3357 50.9215C50.8897 50.6268 51.4202 50.3203 51.5145 50.226C51.6088 50.1435 51.7267 50.061 51.7856 50.061C51.8328 50.061 52.0921 49.896 52.375 49.6838C52.6462 49.4716 53.2356 48.9765 53.6953 48.5875C54.155 48.1867 54.9213 47.3615 55.4164 46.7485C55.9115 46.1355 56.4655 45.3811 56.6541 45.051C56.8545 44.7327 57.1964 44.0608 57.4322 43.5775C57.6679 43.0942 58.0216 42.21 58.2102 41.6324C58.4106 41.0548 58.6581 40.0646 58.7878 39.4516C58.9882 38.4142 59 37.5301 59 26.7793C59 17.5963 58.9646 15.05 58.8468 14.3427C58.7524 13.8594 58.5992 13.1639 58.5049 12.8102C58.3988 12.4566 58.1984 11.82 58.0569 11.3957C57.9037 10.9713 57.5972 10.2286 57.3614 9.74531C57.1257 9.26199 56.8663 8.7551 56.7838 8.62543C56.7013 8.49575 56.2887 7.91813 55.8643 7.32872C55.44 6.7511 54.7209 5.90235 54.2729 5.4544C53.825 5.00644 53.0352 4.33452 52.5165 3.9455C51.9978 3.56828 51.5145 3.22642 51.4438 3.17927C51.3883 3.12379 51.2179 3.02652 51.0604 2.93663L51.0312 2.91993C50.8779 2.82562 50.4064 2.57807 49.982 2.36588C49.5576 2.1537 48.6617 1.80005 47.978 1.57607C47.2943 1.3521 46.2452 1.08097 45.6557 0.974875C44.7009 0.80984 43.0977 0.786264 32.8655 0.798052C22.1736 0.80984 21.0655 0.833417 20.0989 1.02203ZM20.5704 6.37387C19.9927 6.52712 19.1322 6.82182 18.6842 7.03401C18.2363 7.2462 17.6233 7.58806 17.3286 7.78846C17.0339 7.98886 16.6685 8.25999 16.5034 8.38966C16.3502 8.51933 15.9258 8.92013 15.5604 9.27377C15.2067 9.63921 14.8059 10.0636 14.6763 10.2168C14.5466 10.3819 14.2755 10.7473 14.0751 11.042C13.8747 11.3367 13.5328 11.9497 13.3206 12.3976C13.1084 12.8456 12.8137 13.7297 12.6605 14.3427L12.3776 15.4626C12.3776 37.4122 12.3893 38.0842 12.6015 38.9565C12.7194 39.4516 12.9316 40.1235 13.0613 40.4536C13.1909 40.7719 13.4739 41.3731 13.686 41.7857C13.91 42.1865 14.4051 42.9055 14.7941 43.3771C15.1831 43.8368 15.8197 44.4852 16.1969 44.8152C16.5859 45.1335 17.1518 45.5697 17.4465 45.7583C17.753 45.9469 18.1774 46.2062 18.4013 46.3123C18.6253 46.4184 19.0143 46.5953 19.2737 46.7013C19.533 46.8074 20.1696 47.0078 20.6882 47.1493C21.6313 47.4086 21.6431 47.4086 33.0069 47.4086H44.3826C45.9386 46.9843 46.6813 46.7249 47.0349 46.5599C47.2933 46.4393 47.577 46.3124 47.7615 46.2298C47.8295 46.1994 47.8841 46.175 47.919 46.1591C48.0323 46.1076 48.2087 46.0111 48.3379 45.9403C48.3565 45.9301 48.3742 45.9205 48.3905 45.9115C48.493 45.8463 48.7134 45.6853 48.9293 45.5276C48.9866 45.4858 49.0435 45.4442 49.0978 45.4046C49.3572 45.216 49.7226 44.9213 49.923 44.7563C50.1116 44.5913 50.371 44.3555 50.5124 44.2258C50.6421 44.0844 50.8779 43.825 51.0429 43.6364C51.2079 43.436 51.5026 43.0706 51.703 42.8112C51.9034 42.5519 52.1038 42.2572 52.1392 42.1629C52.1863 42.0686 52.3396 41.7975 52.4693 41.5735C52.6107 41.3495 52.8347 40.8426 52.9879 40.4536C53.1294 40.0646 53.3416 39.3455 53.4713 38.8622C53.6834 38.0252 53.6952 37.4004 53.6952 26.7203C53.6952 16.2878 53.6834 15.4036 53.4831 14.6374C53.3652 14.1777 53.0823 13.3289 52.8465 12.7513C52.5989 12.1619 52.2099 11.3957 51.9742 11.042C51.7384 10.6884 51.149 9.99285 50.6775 9.50954C50.1941 9.01443 49.5694 8.41323 49.2747 8.17747C48.98 7.92992 48.2609 7.50554 47.6833 7.21083C47.1056 6.91613 46.0918 6.55069 45.4435 6.38566L44.2647 6.09095L21.6313 6.11453L20.5704 6.37387Z" fill="#D32D33"/>
<path d="M41.2704 26.8146C41.624 26.5789 42.1663 26.1427 42.4963 25.848C42.8264 25.5533 43.1211 25.3057 43.1801 25.3057C43.2272 25.3057 43.2626 25.3175 43.2626 25.3411C43.2626 25.3529 42.8028 25.7419 42.237 26.1899C41.6594 26.6496 41.0582 27.1211 40.8814 27.2272C40.6927 27.3333 40.5749 27.3923 40.5984 27.3451C40.622 27.2862 40.9285 27.0504 41.2704 26.8146Z" fill="#D32D33"/>
<path d="M24.0832 26.0602C23.9299 25.9659 23.812 25.8362 23.8238 25.7655C23.8356 25.7065 24.0832 25.8598 24.3896 26.1191C24.6883 26.3785 25.0655 26.7007 25.5213 27.0858L25.1677 26.8736C24.9791 26.7557 24.7079 26.5671 24.5783 26.4492C24.4486 26.3195 24.2246 26.1545 24.0832 26.0602Z" fill="#D32D33"/>
<path d="M26.4408 27.7105C26.0282 27.4866 25.6628 27.239 25.6156 27.1683C25.5567 27.0504 25.5685 27.0504 25.7099 27.1565C25.8042 27.2272 26.2758 27.5101 26.7591 27.7813C27.2424 28.0524 27.5371 28.241 27.4074 28.1939C27.2778 28.1585 26.8416 27.9345 26.4408 27.7105Z" fill="#D32D33"/>
<path d="M44.1467 28.5947C44.465 28.3117 44.854 27.9345 45.019 27.7577C45.1723 27.5691 45.3255 27.4276 45.3491 27.4276C45.3609 27.4276 45.3844 27.4512 45.3844 27.4866C45.3844 27.5219 45.078 27.8402 44.7125 28.2056C44.3353 28.5711 43.9227 28.9247 43.793 28.9955C43.6634 29.0544 43.8166 28.8776 44.1467 28.5947Z" fill="#D32D33"/>
<path d="M40.8931 30.799C40.8814 30.7637 41.2114 30.5515 41.624 30.3275C42.0366 30.0918 42.402 29.9031 42.4374 29.9031C42.461 29.9031 42.4374 29.9503 42.3785 29.9974C42.3077 30.0564 41.9541 30.2686 41.5886 30.469C41.2114 30.6812 40.8931 30.8226 40.8931 30.799Z" fill="#D32D33"/>
<path d="M21.2187 25.9777C21.2894 25.8362 21.537 25.6004 21.7845 25.459C22.0203 25.3057 22.374 25.1879 22.5744 25.1879C22.763 25.1879 23.1048 25.294 23.3052 25.4236C23.5174 25.5533 23.7885 25.7537 23.9064 25.8598C24.0243 25.9777 24.2836 26.2016 24.4723 26.3667C24.6609 26.5317 25.1913 26.9089 25.6393 27.2154C26.099 27.5101 26.8299 27.9345 27.2896 28.1467C27.7494 28.3471 28.4331 28.63 28.8221 28.7597C29.2111 28.8894 29.7652 29.0426 30.0599 29.0898C30.3546 29.1369 30.8261 29.243 31.1208 29.3137C31.4745 29.408 32.335 29.4316 33.6553 29.3963C34.7634 29.3727 35.8243 29.2902 36.0129 29.2194C36.2015 29.1487 36.6023 29.0426 36.897 28.9601C37.1917 28.8894 37.5925 28.7951 37.7811 28.7361C37.9698 28.689 38.6417 28.3943 39.2547 28.0878C39.8677 27.7813 40.5632 27.4158 40.7871 27.2744C41.0111 27.1447 41.7184 26.6142 42.3432 26.1073C43.3805 25.2822 43.5456 25.1879 43.9935 25.1879C44.4297 25.1996 44.5712 25.2704 44.9955 25.6948C45.4199 26.1191 45.4906 26.2606 45.5024 26.685C45.5024 27.074 45.4199 27.2862 45.1724 27.5691C44.9955 27.7813 44.6655 28.1113 44.4415 28.3235C44.2175 28.5239 43.8992 28.8068 43.7342 28.9483C43.5692 29.078 43.2509 29.3255 43.0269 29.4788C42.8029 29.632 42.1074 30.0446 41.4944 30.3982C40.8814 30.7519 39.9738 31.1998 39.4904 31.4002C39.0071 31.6006 38.3116 31.8482 37.958 31.9425C37.6043 32.0368 37.0739 32.1901 36.7792 32.2608C36.4844 32.3315 35.6121 32.4376 34.8341 32.4966C34.0561 32.5555 32.8655 32.5791 32.1817 32.5437C31.498 32.5201 30.5432 32.4022 30.0599 32.3079C29.5766 32.2018 28.8575 32.0132 28.4685 31.8954C28.0795 31.7775 27.5372 31.6006 27.2543 31.4946C26.9831 31.4002 26.2994 31.082 25.7218 30.799C25.156 30.5161 24.4251 30.1035 24.1068 29.8914C23.7768 29.6674 23.4349 29.4316 23.3406 29.3491C23.2463 29.2666 22.9516 29.0426 22.6922 28.8304C22.4329 28.63 22.0203 28.2882 21.7728 28.0642C21.537 27.8402 21.2777 27.5573 21.2187 27.4276C21.148 27.2979 21.1008 26.9797 21.1008 26.7203C21.1008 26.461 21.1598 26.1309 21.2187 25.9777Z" fill="#19171C"/>
</svg>
