<svg width="44" height="45" viewBox="0 0 44 45" fill="none" xmlns="http://www.w3.org/2000/svg">
<path d="M24.6925 16.0168H16.6841V12.3463L9.67676 18.6863L16.6841 25.6936V22.3568H26.6946V18.6863L33.3682 25.6936L26.6946 32.3673V29.0304H19.6872" stroke="#373737" stroke-width="2"/>
<path fill-rule="evenodd" clip-rule="evenodd" d="M40.6001 25.3599C40.6745 24.9199 40.7344 24.4748 40.7793 24.0252H43.2904C43.2505 24.4741 43.1974 24.9191 43.1314 25.3599H40.6001ZM40.1534 27.362C40.0275 27.8139 39.886 28.259 39.7296 28.6967H42.3651C42.5024 28.2576 42.6266 27.8125 42.7371 27.362H40.1534ZM38.1689 32.0336C38.4243 31.5994 38.6637 31.1542 38.886 30.6988H41.631C41.4396 31.1518 41.2337 31.5969 41.0138 32.0336H38.1689ZM36.8181 34.0356C36.4629 34.4978 36.0877 34.9431 35.6939 35.3704H38.943C39.2681 34.9378 39.5778 34.4926 39.8712 34.0356H36.8181ZM31.6577 38.7072C32.3145 38.3003 32.9455 37.8544 33.5476 37.3725H37.2429C36.7974 37.8378 36.3319 38.2832 35.8477 38.7072H31.6577ZM27.2614 40.7093C25.4965 41.2537 23.6255 41.5462 21.6894 41.5462C11.1272 41.5462 2.5 32.8415 2.5 22.0231C2.5 11.2047 11.1272 2.5 21.6894 2.5C28.6736 2.5 34.8117 6.30606 38.1689 12.0126H41.0138C37.4238 4.88176 30.1181 0 21.6894 0C9.71067 0 0 9.86007 0 22.0231C0 34.1861 9.71067 44.0462 21.6894 44.0462C25.9068 44.0462 29.8431 42.8239 33.1734 40.7093H27.2614ZM43.3396 20.6883C43.3656 21.1299 43.3788 21.5749 43.3788 22.0231H40.8788C40.8788 21.5744 40.8639 21.1293 40.8347 20.6883H43.3396ZM40.6001 18.6862H43.1314C43.0641 18.2367 42.9835 17.7917 42.8898 17.3515H40.3267C40.4326 17.7907 40.5239 18.2358 40.6001 18.6862ZM41.9002 14.0147C42.0688 14.4529 42.2239 14.898 42.3651 15.3494H39.7296C39.5677 14.8964 39.3898 14.4512 39.1966 14.0147H41.9002Z" fill="#373737"/>
</svg>
