<svg width="43" height="43" viewBox="0 0 43 43" fill="none" xmlns="http://www.w3.org/2000/svg">
<path d="M21.5 0C9.6449 0 0 9.6449 0 21.5C0 33.3551 9.6449 43 21.5 43C33.3551 43 43 33.3551 43 21.5C43 9.6449 33.3551 0 21.5 0ZM38.5517 19.35H32.6091C32.3438 14.6442 31.0273 10.0576 28.7563 5.92755C31.3883 7.15746 33.6665 9.033 35.3792 11.3798C37.0918 13.7265 38.1831 16.4683 38.5517 19.35ZM22.6395 4.35805C24.8647 7.29065 27.8575 12.4851 28.2875 19.35H15.1145C15.4134 13.7686 17.2516 8.5398 20.3842 4.3559C20.754 4.3344 21.1238 4.3 21.5 4.3C21.8849 4.3 22.2611 4.3344 22.6395 4.35805ZM14.3792 5.86305C12.2636 9.9287 11.0424 14.5383 10.8145 19.35H4.44835C4.8198 16.4428 5.92676 13.6785 7.66452 11.3185C9.40228 8.95847 11.7134 7.08079 14.3792 5.86305ZM4.44835 23.65H10.8425C11.1349 28.7649 12.2722 33.2777 14.1879 37.0445C11.5696 35.8103 9.30462 33.936 7.60231 31.5948C5.90001 29.2537 4.81527 26.5213 4.44835 23.65ZM20.3175 38.642C17.3054 34.9912 15.5273 29.8764 15.1382 23.65H28.2811C27.8339 29.612 25.8796 34.8214 22.6847 38.6398C22.2934 38.6656 21.9021 38.7 21.5 38.7C21.1001 38.7 20.711 38.6656 20.3175 38.642ZM28.9412 36.9822C30.9944 33.1251 32.2479 28.595 32.5768 23.65H38.5495C38.1867 26.4972 37.1175 29.2084 35.4394 31.537C33.7612 33.8655 31.5274 35.7373 28.9412 36.9822Z" fill="#373737"/>
</svg>
