<svg width="60" height="45" viewBox="0 0 60 45" fill="none" xmlns="http://www.w3.org/2000/svg">
<path fill-rule="evenodd" clip-rule="evenodd" d="M37.9972 0C38.3339 0 38.6686 0.00884333 39.0014 0.0239407L38.9408 25.5537C39.0462 29.9889 39.8896 30.0585 42.7862 30.0825L51.1733 30.1458C54.8262 30.1134 55.8302 29.9584 55.8027 25.7208L55.8536 15.4174C55.859 11.8425 55.1644 11.3373 51.0988 11.1607L44.7548 11.1553L44.7502 15.5348L51.0712 15.5455L51.0069 23.6419C51.0202 25.4854 50.4448 25.7061 49.6987 25.758L45.2078 25.6919C44.2397 25.7078 44.0348 24.7067 44.0582 23.6015V0.850627C53.2625 3.49706 60 12.0206 60 22.1271C60 34.3475 50.149 44.254 37.9972 44.254C37.3171 44.254 36.6447 44.2212 35.9803 44.1605L36.1693 17.3136L30.5864 17.3057L30.5352 42.9479C22.6718 40.0974 16.888 32.8709 16.0899 24.1903L16.0897 25.7906C16.0862 28.8005 15.3567 30.0561 13.8951 30.0774L6.34587 30.116L6.33703 25.7739L11.6361 25.7788L11.6582 15.5654L4.15431 15.5177L4.07946 36.2001H0V11.1543L4.11404 11.1533L4.10664 12.9953C4.30226 12.2477 4.65137 11.2407 5.50523 11.1318L13.99 11.1115C15.7587 11.2343 16.1286 11.7063 16.0915 13.8245L16.0905 20.0499C16.4653 16.0038 17.9239 12.2746 20.1707 9.15701L20.3369 27.1957C20.3612 29.7189 21.3393 30.1309 22.2352 30.1384L28.5618 30.1303L28.5495 25.777L25.0785 25.783L25.2621 4.0809C28.856 1.51082 33.2513 0 37.9972 0ZM30.5958 11.1471L30.5973 15.5459L36.1693 15.5455L36.1659 11.1527L30.5958 11.1471Z" fill="#373737"/>
</svg>
